<svg id="Layer_1" data-name="Layer 1" fill="#1c4672" xmlns="http://www.w3.org/2000/svg" viewBox="0 0 128 128"><title>BIN</title><path d="M109.5,22.442h-4.552L97.6,5.793A1.75,1.75,0,0,0,96,4.75H32a1.75,1.75,0,0,0-1.6,1.043L23.052,22.442H18.5a1.751,1.751,0,0,0-1.75,1.75v7.116a1.751,1.751,0,0,0,1.75,1.75h4.222l4.78,88.536a1.751,1.751,0,0,0,1.748,1.656h69.5a1.751,1.751,0,0,0,1.748-1.656l4.78-88.536H109.5a1.751,1.751,0,0,0,1.75-1.75V24.192A1.751,1.751,0,0,0,109.5,22.442ZM33.141,8.25H94.859l6.264,14.192H26.877Zm63.951,111.5H30.908L26.227,33.058h75.546ZM107.75,29.558H20.25V25.942h87.5Z"/><path d="M78.667,13.6H49.333a1.75,1.75,0,0,0,0,3.5H78.667a1.75,1.75,0,0,0,0-3.5Z"/><path d="M43.167,88.987H84.833a1.749,1.749,0,0,0,1.75-1.75V62.013a1.749,1.749,0,0,0-1.75-1.75H43.167a1.749,1.749,0,0,0-1.75,1.75V87.237A1.749,1.749,0,0,0,43.167,88.987Zm1.75-25.224H83.083V85.487H44.917Z"/></svg>