<?xml version="1.0" encoding="utf-8"?>
<!-- Generator: Adobe Illustrator 16.0.0, SVG Export Plug-In . SVG Version: 6.00 Build 0)  -->
<!DOCTYPE svg PUBLIC "-//W3C//DTD SVG 1.0//EN" "http://www.w3.org/TR/2001/REC-SVG-20010904/DTD/svg10.dtd">
<svg version="1.0" id="Layer_1" xmlns="http://www.w3.org/2000/svg" xmlns:xlink="http://www.w3.org/1999/xlink" x="0px" y="0px"
	 width="100px" height="100px" viewBox="0 0 100 100" enable-background="new 0 0 100 100" xml:space="preserve">
<path fill="#0288D1" d="M9.999,50c0,11.047,8.964,20,20.002,20c8.002,0,14.904-4.701,18.103-11.492
	c-0.003,0.007-0.006,0.014-0.009,0.02c4.323,3.02,9.569,4.805,15.239,4.805C78.063,63.332,90,51.395,90,36.667
	C90,21.942,78.063,10,63.334,10c-12.898,0-23.663,9.167-26.129,21.343c0.003,0.001,0.006,0.002,0.009,0.004
	C34.976,30.48,32.545,30,30.001,30C18.963,30,9.999,38.956,9.999,50z"/>
<path fill="#E1F5FE" d="M16.668,50c0,7.363,5.975,13.332,13.333,13.332c7.363,0,13.333-5.969,13.333-13.332
	s-5.97-13.333-13.333-13.333C22.643,36.667,16.668,42.637,16.668,50z"/>
<path fill="#E1F5FE" d="M50.002,50c0,0.501-0.024,0.996-0.061,1.488c0,0,0-0.003,0-0.004c3.545,3.211,8.235,5.184,13.393,5.184
	c11.041,0,20-8.957,20-20.001s-8.959-20-20-20c-10.533,0-19.151,8.157-19.919,18.5c-0.047-0.042-0.096-0.082-0.143-0.123
	C47.399,38.708,50.002,44.049,50.002,50z"/>
<path fill="#81D4FA" d="M55,70c-5.52,0-9.999,4.479-9.999,10c0,5.52,4.479,10,9.999,10c5.523,0,10-4.48,10-10
	C65,74.479,60.523,70,55,70z M55,83.332c-1.838,0-3.332-1.489-3.332-3.332c0-1.836,1.494-3.334,3.332-3.334
	c1.844,0,3.334,1.498,3.334,3.334C58.334,81.843,56.844,83.332,55,83.332z"/>
<path fill="#81D4FA" d="M90,76.666c-3.684,0-6.666,2.989-6.666,6.666H80c0-3.677-2.988-6.666-6.666-6.666v-3.334
	c3.687,0,6.666-2.988,6.666-6.666h3.334c0,3.678,2.986,6.666,6.666,6.666V76.666z"/>
<path fill="#81D4FA" d="M36.669,80c0,1.843-1.492,3.332-3.335,3.332c-1.839,0-3.333-1.489-3.333-3.332
	c0-1.844,1.494-3.334,3.333-3.334C35.177,76.666,36.669,78.156,36.669,80z"/>
<circle fill="#81D4FA" cx="13.334" cy="26.667" r="3.333"/>
<circle fill="#81D4FA" cx="31.669" cy="18.333" r="5"/>
<path fill="#81D4FA" d="M23.334,85c0,2.766-2.239,5-5,5c-2.76,0-5-2.234-5-5c0-2.76,2.24-5,5-5C21.095,80,23.334,82.24,23.334,85z"
	/>
<path fill="#0288D1" d="M70,36.665C70,32.983,67.021,30,63.334,30v-6.667c7.363,0,13.334,5.967,13.334,13.332H70L70,36.665z"/>
</svg>
