<?xml version="1.0" encoding="utf-8"?>
<!-- Generator: Adobe Illustrator 16.0.0, SVG Export Plug-In . SVG Version: 6.00 Build 0)  -->
<!DOCTYPE svg PUBLIC "-//W3C//DTD SVG 1.0//EN" "http://www.w3.org/TR/2001/REC-SVG-20010904/DTD/svg10.dtd">
<svg version="1.0" id="Layer_1" xmlns="http://www.w3.org/2000/svg" xmlns:xlink="http://www.w3.org/1999/xlink" x="0px" y="0px"
	 width="100px" height="100px" viewBox="0 0 100 100" enable-background="new 0 0 100 100" xml:space="preserve">
<polygon fill="#0288D1" points="29.999,36.667 29.999,43.334 36.667,43.334 43.333,90 76.667,90 83.332,43.333 90,43.333 90,36.667 
	"/>
<path fill="#81D4FA" d="M36.667,36.667v-3.333c0-3.456,2.103-6.42,5.105-7.683c0.514-5.039,4.719-8.984,9.896-8.984
	c1.126,0,2.191,0.228,3.203,0.571C57.09,12.958,61.511,10,66.667,10C74.033,10,80,15.968,80,23.332c0,0.822-0.102,1.618-0.241,2.398
	c2.167,1.833,3.573,4.541,3.573,7.604v3.333l-6.665-0.001v-3.333c0-1.293-0.761-2.131-1.214-2.515l-2.934-2.484l0.678-3.783
	c0.072-0.397,0.137-0.802,0.137-1.219c0-3.676-2.991-6.666-6.666-6.666c-2.461,0-4.715,1.395-5.876,3.64l-2.64,5.088l-5.424-1.844
	c-0.432-0.146-0.778-0.217-1.062-0.217c-1.687,0-3.093,1.288-3.267,2.996L48,30.262l-3.645,1.532
	c-0.472,0.199-1.022,0.721-1.022,1.538v3.333L36.667,36.667z"/>
<path fill="#81D4FA" d="M26.667,26.667c-3.687,0-6.667,2.989-6.667,6.663h-3.334c0-3.674-2.986-6.663-6.666-6.663v-3.336
	c3.685,0,6.666-2.989,6.666-6.664H20c0,3.675,2.988,6.664,6.667,6.664V26.667z"/>
<path fill="#81D4FA" d="M33.333,58.333c0,2.761-2.236,5.001-5,5.001c-2.755,0-5-2.24-5-5.001c0-2.76,2.246-5,5-5
	C31.097,53.333,33.333,55.573,33.333,58.333z"/>
<path fill="#81D4FA" d="M36.667,13.333c0,1.836-1.498,3.333-3.333,3.333s-3.334-1.497-3.334-3.333S31.497,10,33.333,10
	S36.667,11.498,36.667,13.333z"/>
<path fill="#81D4FA" d="M16.666,73.332c0,1.836-1.498,3.336-3.333,3.336S10,75.168,10,73.332C10,71.498,11.497,70,13.333,70
	S16.666,71.498,16.666,73.332z"/>
<path fill="#81D4FA" d="M20,46.667C20,48.503,18.502,50,16.666,50s-3.333-1.497-3.333-3.333s1.498-3.333,3.333-3.333
	S20,44.831,20,46.667z"/>
<polygon fill="#E1F5FE" points="76.602,43.333 43.4,43.333 49.114,83.333 70.886,83.333 "/>
</svg>
