<svg id="Layer_1" data-name="Layer 1" fill="#1c4672" xmlns="http://www.w3.org/2000/svg" viewBox="0 0 128 128"><title>BUCKET</title><path d="M29.389,48.2a1.75,1.75,0,1,0-3.441.636l3.538,19.152a1.75,1.75,0,0,0,3.442-.636Z"/><path d="M99.9,19.474a4.75,4.75,0,1,0-4.75-4.75A4.756,4.756,0,0,0,99.9,19.474Zm0-6a1.25,1.25,0,1,1-1.25,1.25A1.252,1.252,0,0,1,99.9,13.474Z"/><path d="M87.167,13.719a4.75,4.75,0,1,0-4.75-4.75A4.756,4.756,0,0,0,87.167,13.719Zm0-6a1.25,1.25,0,1,1-1.25,1.25A1.251,1.251,0,0,1,87.167,7.719Z"/><path d="M121.5,26.94h-5.25V24.19a1.751,1.751,0,0,0-1.75-1.75H77.255a12.43,12.43,0,0,0-6.628-4.02A12.289,12.289,0,0,0,57.02,11.934a12.315,12.315,0,0,0-23.485,4.34,17.746,17.746,0,0,0-8.5,6.166H13.5a1.751,1.751,0,0,0-1.75,1.75v2.75H6.5a1.751,1.751,0,0,0-1.75,1.75V44.56a45.422,45.422,0,0,0,17.965,36.3l7.564,40.957A1.75,1.75,0,0,0,32,123.25H96a1.75,1.75,0,0,0,1.721-1.432l7.564-40.957a45.421,45.421,0,0,0,17.965-36.3V28.69A1.751,1.751,0,0,0,121.5,26.94ZM102.091,78.887a42.69,42.69,0,0,1-21.326,7.939V84.75A1.751,1.751,0,0,0,79.015,83H48.985a1.751,1.751,0,0,0-1.75,1.75v2.076a42.7,42.7,0,0,1-21.326-7.939L17.793,34.94H64.25V46.72A13.765,13.765,0,0,0,78,60.47h8.167a13.766,13.766,0,0,0,13.75-13.75V34.94h10.29ZM50.735,88.8l0-.02c0-.018,0-.035,0-.053V86.5h26.53v2.227c0,.018,0,.035,0,.053l0,.02V91H50.735ZM67.75,25.942H96.417V46.72a10.262,10.262,0,0,1-10.25,10.25H78A10.261,10.261,0,0,1,67.75,46.72Zm45,5.5H99.917v-5.5H112.75ZM35.719,19.277a1.751,1.751,0,0,0,1.318-1.8l-.015-.2c0-.068-.012-.137-.012-.2a8.817,8.817,0,0,1,17.272-2.5,1.752,1.752,0,0,0,2.3,1.14,8.633,8.633,0,0,1,3.063-.558,8.762,8.762,0,0,1,8.149,5.479A1.751,1.751,0,0,0,69.157,21.7a8.8,8.8,0,0,1,2.447.738H29.766A14.192,14.192,0,0,1,35.719,19.277ZM15.25,25.94h49v5.5h-49Zm-7,18.62V30.44h3.5v2.75a1.751,1.751,0,0,0,1.75,1.75h.734l7.481,40.509A41.861,41.861,0,0,1,8.25,44.56Zm86.293,75.19H33.457L26.794,83.678a46.186,46.186,0,0,0,20.441,6.663V92.75a1.751,1.751,0,0,0,1.75,1.75h30.03a1.751,1.751,0,0,0,1.75-1.75V90.341a46.182,46.182,0,0,0,20.441-6.663ZM119.75,44.56a41.863,41.863,0,0,1-13.465,30.889l7.481-40.509h.734a1.751,1.751,0,0,0,1.75-1.75V30.44h3.5Z"/></svg>