<?xml version="1.0" encoding="utf-8"?>
<!-- Generator: Adobe Illustrator 25.2.3, SVG Export Plug-In . SVG Version: 6.00 Build 0)  -->
<svg version="1.1" id="Layer_1" xmlns="http://www.w3.org/2000/svg" xmlns:xlink="http://www.w3.org/1999/xlink" x="0px" y="0px"
	 viewBox="0 0 100 100" style="enable-background:new 0 0 100 100;" xml:space="preserve">
<style type="text/css">
	.st0{fill:#0288D1;}
	.st1{fill:#81D4FA;}
	.st2{fill:#E1F5FE;}
</style>
<polygon class="st0" points="10,83.3 10,90 56.7,90 56.7,83.3 46.7,83.3 46.7,70 20,70 20,83.3 "/>
<polygon class="st0" points="56.7,56.7 63.3,90 83.3,90 90,56.7 "/>
<path class="st1" d="M83.3,56.7V50c0-5.5-4.5-10-10-10c-5.5,0-10,4.5-10,10v6.7h-6.7V50c0-9.2,7.5-16.7,16.7-16.7
	C82.5,33.3,90,40.8,90,50v6.7H83.3z"/>
<rect x="30" y="10" class="st1" width="6.7" height="60"/>
<rect x="26.7" y="76.7" class="st2" width="13.3" height="6.7"/>
<polygon class="st2" points="81.9,63.3 64.8,63.3 68.8,83.3 77.9,83.3 "/>
<path class="st1" d="M75,25c0,1.8,1.5,3.3,3.3,3.3s3.3-1.5,3.3-3.3s-1.5-3.3-3.3-3.3S75,23.1,75,25z"/>
<path class="st1" d="M51.7,23.3c0-1.8-1.5-3.3-3.3-3.3H45v-3.3h3.3c1.8,0,3.3-1.5,3.3-3.3V10H55v3.3c0,1.8,1.5,3.3,3.3,3.3h3.3V20
	c0,0-3.3,0-3.3,0c-1.8,0-3.3,1.5-3.3,3.3v3.3h-3.3V23.3z"/>
<path class="st1" d="M65,15c0,2.8,2.2,5,5,5c2.8,0,5-2.2,5-5s-2.2-5-5-5C67.2,10,65,12.2,65,15z"/>
<path class="st1" d="M81.7,15c0,1.8,1.5,3.3,3.3,3.3s3.3-1.5,3.3-3.3s-1.5-3.3-3.3-3.3S81.7,13.2,81.7,15z"/>
</svg>
