<?xml version="1.0" encoding="utf-8"?>
<!-- Generator: Adobe Illustrator 25.2.3, SVG Export Plug-In . SVG Version: 6.00 Build 0)  -->
<svg version="1.1" id="Layer_1" xmlns="http://www.w3.org/2000/svg" xmlns:xlink="http://www.w3.org/1999/xlink" x="0px" y="0px"
	 viewBox="0 0 125 122.9" style="enable-background:new 0 0 125 122.9;" xml:space="preserve">
<style type="text/css">
	.st0{fill:#FFFFFF;}
</style>
<g>
	<path class="st0" d="M125,82.4l-1.6-2.5c0,0-6.4,3.9-11.9,8.3V21.7c0-12-9.7-21.7-21.7-21.7H21.7C9.7,0,0,9.7,0,21.7v68.1
		c0,12,9.7,21.7,21.7,21.7h56.2v4.8c0,3.7,3,6.7,6.7,6.7h21.1c3.7,0,6.7-3,6.7-6.7V95.1c0-0.6-0.1-1.1-0.2-1.7
		C119,85.8,125,82.4,125,82.4z M22.5,103.7c-8.2,0-14.8-6.6-14.8-14.8V22.5c0-8.2,6.6-14.8,14.8-14.8h66.4c8.2,0,14.8,6.6,14.8,14.8
		v65.8H84.6c-3.7,0-6.7,3-6.7,6.7v8.6H22.5z M110.1,116c0,2.5-2.1,4.6-4.6,4.6H84.9c-2.5,0-4.6-2.1-4.6-4.6v-4.5v-7.7v-8.4
		c0-2.5,2.1-4.6,4.6-4.6h18.7h1.9c0.8,0,1.6,0.2,2.3,0.6c-0.5,0.5-1,1-1.4,1.5c-5.2,5.9-10.5,13.5-10.5,13.5s-1.1,1.7-1.7-0.2
		c-0.6-1.9-4.2-7.3-7.8-11l-2.8,1.2c0,0,2.8,3.4,5.9,11c3.1,7.6,2.5,7,2.5,7s1.2,2.9,3.2,2.9s2.5-0.9,3.4-2.7
		c0.9-1.8,4.1-9.1,11.5-18.4v1.3V116z"/>
	<polygon class="st0" points="29.4,31.5 25,31.5 25,28.4 28.6,28.4 28.6,27.5 25,27.5 25,24.5 29.4,24.5 29.4,23.6 24,23.6 24,32.4 
		29.4,32.4 	"/>
	<polygon class="st0" points="32,24.5 32.3,24.5 35.7,32.4 37.5,32.4 37.5,23.6 36.5,23.6 36.5,31.5 36.2,31.5 32.9,23.6 31.1,23.6 
		31.1,32.4 32,32.4 	"/>
	<polygon class="st0" points="40.6,28.4 45.1,28.4 45.1,32.4 46,32.4 46,23.6 45.1,23.6 45.1,27.5 40.6,27.5 40.6,23.6 39.6,23.6 
		39.6,32.4 40.6,32.4 	"/>
	<path class="st0" d="M49,30.1h3.8l0.6,2.3h1l-2.4-8.8h-2.1l-2.4,8.8h1L49,30.1z M50.5,24.5h0.7l1.3,4.8h-3.3L50.5,24.5z"/>
	<polygon class="st0" points="56.7,24.5 56.9,24.5 60.4,32.4 62.1,32.4 62.1,23.6 61.2,23.6 61.2,31.5 60.9,31.5 57.6,23.6 
		55.7,23.6 55.7,32.4 56.7,32.4 	"/>
	<path class="st0" d="M64.6,31.3c0.2,0.4,0.6,0.7,1,0.9c0.4,0.2,1,0.3,1.7,0.3s1.5-0.1,2.3-0.3l0-0.8c-0.8,0.2-1.5,0.2-2.1,0.2
		c-0.6,0-1-0.1-1.4-0.2s-0.5-0.4-0.7-0.7c-0.2-0.3-0.3-0.7-0.3-1.1C65,29.2,65,28.7,65,28c0-1.3,0.2-2.3,0.5-2.8
		c0.3-0.6,0.9-0.8,1.8-0.8c0.7,0,1.4,0.1,2.3,0.2l0-0.8c-0.9-0.2-1.7-0.3-2.4-0.3s-1.2,0.1-1.6,0.3c-0.4,0.2-0.8,0.5-1,0.9
		c-0.2,0.4-0.4,0.9-0.5,1.4C64,26.6,64,27.2,64,28s0,1.4,0.1,1.9C64.2,30.5,64.3,30.9,64.6,31.3z"/>
	<polygon class="st0" points="76.5,31.5 72.2,31.5 72.2,28.4 75.8,28.4 75.8,27.5 72.2,27.5 72.2,24.5 76.5,24.5 76.5,23.6 
		71.2,23.6 71.2,32.4 76.5,32.4 	"/>
	<path class="st0" d="M82.9,32c1.1-0.6,1.6-2,1.6-4.2c0-1.1-0.1-1.9-0.4-2.6c-0.5-1.1-1.4-1.7-2.8-1.7h-3.1v8.8h3.1
		C81.9,32.4,82.5,32.3,82.9,32z M79.2,24.5h2.2c0.4,0,0.8,0.1,1.1,0.3c0.8,0.4,1.1,1.5,1.1,3.1c0,2.4-0.7,3.6-2.2,3.6h-2.2V24.5z"/>
	<path class="st0" d="M38.4,67.5c0.9-1.4,1.5-3.1,1.9-4.9c0.3-1.8,0.5-4.1,0.5-6.9c0-2.8-0.2-5-0.5-6.8c-0.4-1.7-1-3.2-2-4.5
		c-1-1.3-2.3-2.2-4-2.8c-1.7-0.6-3.9-0.8-6.6-0.8H17.3v30.8h10.4c2.7,0,5-0.3,6.7-1C36.1,69.9,37.5,68.9,38.4,67.5z M34.3,59.3
		c-0.2,2.4-0.8,4.1-1.6,5.1c-1,1.1-2.7,1.7-4.9,1.7h-4.1V46.2h4.1c1.5,0,2.7,0.2,3.6,0.5c0.9,0.3,1.6,0.9,2,1.7
		c0.5,0.8,0.7,1.8,0.9,2.8c0.1,1,0.2,2.4,0.2,4.1C34.3,57,34.3,58.4,34.3,59.3z"/>
	<path class="st0" d="M68.5,62.7c0-1.9-0.3-3.4-1-4.5c-0.6-1.1-1.7-1.9-3-2.5c1.2-0.8,2.1-1.7,2.6-2.7c0.5-1,0.8-2.4,0.8-4.1
		c0-2.9-0.8-4.9-2.4-6.2c-1.6-1.3-4-1.9-7.2-1.9H46.2v30.8h12.3c3.2,0,5.6-0.7,7.4-2.2C67.6,67.9,68.5,65.7,68.5,62.7z M52.5,46.1
		H58c2.4,0,3.6,1.2,3.6,3.7s-1.2,3.7-3.5,3.7h-5.6V46.1z M61.2,65.4c-0.6,0.5-1.7,0.8-3,0.8h-5.7v-7.5h5.7c2.7,0,4,1.2,4,3.7
		C62.2,63.9,61.8,64.9,61.2,65.4z"/>
	<path class="st0" d="M82.4,66.7c-2.1,0-5.2-0.3-9.3-0.8l-0.6,4.8l1.6,0.3c3.4,0.7,6.3,1.1,8.7,1.1c3.2,0,5.7-0.8,7.7-2.5
		c2-1.7,2.9-4.1,2.9-7.3c0-2.5-0.6-4.4-1.8-5.6c-1.2-1.2-3.3-2.3-6.3-3.3c-3-1-4.9-1.7-5.7-2.2c-0.8-0.5-1.2-1.3-1.2-2.2
		c0-2.2,1.6-3.3,4.9-3.3c1.8,0,4.8,0.2,9,0.7l0.5-4.9l-1.6-0.3c-3.4-0.6-6.3-0.9-8.5-0.9c-3.3,0-5.8,0.8-7.7,2.3
		c-1.9,1.5-2.8,3.8-2.8,6.9c0,2.4,0.7,4.4,2.2,5.7c1.4,1.4,3.9,2.6,7.4,3.6c2.2,0.6,3.7,1.2,4.4,1.8c0.7,0.5,1.1,1.3,1.1,2.3
		C87.2,65.3,85.6,66.7,82.4,66.7z"/>
	<path class="st0" d="M32.5,80.7c0.7,0,1.4,0.1,2.3,0.2l0-0.8c-0.9-0.2-1.7-0.3-2.4-0.3c-0.7,0-1.2,0.1-1.6,0.3
		c-0.4,0.2-0.7,0.5-1,0.9c-0.2,0.4-0.4,0.9-0.5,1.4c-0.1,0.5-0.1,1.2-0.1,2c0,0.8,0,1.4,0.1,1.9c0.1,0.5,0.2,1,0.5,1.4
		c0.2,0.4,0.6,0.7,1,0.9c0.4,0.2,1,0.3,1.7,0.3s1.5-0.1,2.3-0.3l0-0.8C34,87.9,33.3,88,32.7,88c-0.6,0-1-0.1-1.4-0.2
		c-0.3-0.1-0.5-0.4-0.7-0.7c-0.2-0.3-0.3-0.7-0.3-1.1c-0.1-0.4-0.1-0.9-0.1-1.6c0-1.3,0.2-2.3,0.4-2.8C31,81,31.6,80.7,32.5,80.7z"
		/>
	<polygon class="st0" points="41.9,83.9 37.4,83.9 37.4,79.9 36.4,79.9 36.4,88.7 37.4,88.7 37.4,84.7 41.9,84.7 41.9,88.7 
		42.8,88.7 42.8,79.9 41.9,79.9 	"/>
	<polygon class="st0" points="45,88.7 50.3,88.7 50.3,87.9 46,87.9 46,84.7 49.6,84.7 49.6,83.8 46,83.8 46,80.8 50.3,80.8 
		50.3,79.9 45,79.9 	"/>
	<path class="st0" d="M54.9,80.7c0.7,0,1.4,0.1,2.3,0.2l0-0.8c-0.9-0.2-1.7-0.3-2.4-0.3c-0.7,0-1.2,0.1-1.6,0.3
		c-0.4,0.2-0.7,0.5-1,0.9c-0.2,0.4-0.4,0.9-0.5,1.4s-0.1,1.2-0.1,2c0,0.8,0,1.4,0.1,1.9c0.1,0.5,0.2,1,0.5,1.4
		c0.2,0.4,0.6,0.7,1,0.9c0.4,0.2,1,0.3,1.7,0.3c0.7,0,1.5-0.1,2.3-0.3l0-0.8c-0.8,0.2-1.5,0.2-2.1,0.2c-0.6,0-1-0.1-1.4-0.2
		c-0.3-0.1-0.5-0.4-0.7-0.7c-0.2-0.3-0.3-0.7-0.3-1.1c-0.1-0.4-0.1-0.9-0.1-1.6c0-1.3,0.2-2.3,0.4-2.8C53.3,81,54,80.7,54.9,80.7z"
		/>
	<polygon class="st0" points="64.6,79.9 63.5,79.9 61.2,84 59.8,84 59.8,79.9 58.8,79.9 58.8,88.7 59.8,88.7 59.8,84.9 61.2,84.8 
		63.6,88.7 64.7,88.7 62.1,84.4 	"/>
	<polygon class="st0" points="66,88.7 71.3,88.7 71.3,87.9 67,87.9 67,84.7 70.6,84.7 70.6,83.8 67,83.8 67,80.8 71.3,80.8 
		71.3,79.9 66,79.9 	"/>
	<path class="st0" d="M79.4,84.2c0-1.1-0.1-1.9-0.4-2.6c-0.5-1.1-1.4-1.7-2.8-1.7H73v8.8h3.1c0.6,0,1.2-0.1,1.6-0.3
		C78.8,87.8,79.4,86.4,79.4,84.2z M76.1,87.9H74v-7h2.2c0.4,0,0.8,0.1,1.1,0.3c0.8,0.4,1.1,1.5,1.1,3.1
		C78.4,86.6,77.6,87.9,76.1,87.9z"/>
</g>
</svg>
