<?xml version="1.0" encoding="utf-8"?>
<!-- Generator: Adobe Illustrator 25.2.3, SVG Export Plug-In . SVG Version: 6.00 Build 0)  -->
<svg version="1.1" id="Layer_1" xmlns="http://www.w3.org/2000/svg" xmlns:xlink="http://www.w3.org/1999/xlink" x="0px" y="0px"
	 viewBox="0 0 125 125.4" style="enable-background:new 0 0 125 125.4;" xml:space="preserve">
<style type="text/css">
	.st0{fill:#FFFFFF;}
</style>
<g>
	<path class="st0" d="M63.3,0.4c0.2,0,0.4,0,0.7,0.1c2.1,0.1,4.2,0.2,6.2,0.4c4.6,0.5,9,1.6,13.4,3.1c4.8,1.7,9.3,3.9,13.5,6.7
		c3.7,2.5,7.1,5.3,10.2,8.5c0.9,1,1.8,2,2.6,3c0.7,0.9,0.9,1.9,0.4,3c-0.7,1.6-2.7,1.9-3.9,0.6c-1-1.1-2-2.3-3-3.5
		c-3.8-4-8.1-7.3-13-10C86,10,81.4,8.3,76.6,7.1c-2.3-0.6-4.7-1-7.1-1.3c-2.7-0.3-5.4-0.5-8.1-0.4c-1.6,0-3.2,0.2-4.8,0.3
		c-2.3,0.2-4.6,0.5-6.9,1c-3.1,0.7-6.2,1.6-9.2,2.8c-4,1.6-7.8,3.7-11.3,6.2c-2.5,1.8-4.9,3.8-7.1,6c-4,4-7.5,8.5-10.3,13.4
		c-2.4,4.2-4.2,8.7-5.4,13.4c-0.6,2.2-0.9,4.4-1.3,6.6c-0.5,2.8-0.6,5.7-0.5,8.6c0.1,1.9,0.2,3.8,0.4,5.7c0.5,4.5,1.5,8.8,3.1,13
		c2.7,7.3,6.5,13.9,11.8,19.7c4.2,4.7,9.2,8.4,14.8,11.4c4.4,2.4,9.1,4.1,14,5.3c2.4,0.6,4.8,1,7.3,1.3c1.8,0.2,3.5,0.3,5.3,0.3
		c2.2,0,4.4,0,6.5-0.2c3.4-0.2,6.8-0.9,10.1-1.7c5.6-1.5,10.8-3.8,15.7-6.9c4.9-3.2,9.1-7,12.8-11.5c4.9-5.9,8.4-12.5,10.7-19.8
		c0.9-2.9,1.7-5.9,2.1-9c0.4-2.6,0.7-5.1,0.7-7.7c0-2.2-0.1-4.4-0.3-6.6c-0.4-5.4-1.8-10.6-3.9-15.6c-1.3-3.2-3-6.3-5-9.2
		c-0.8-1.1-0.8-2.2-0.1-3.3c1.1-1.5,2.9-1.6,3.9,0c1.3,2.1,2.7,4.3,3.8,6.5c2.3,4.3,3.8,8.9,4.9,13.6c0.6,2.7,1,5.4,1.2,8.1
		c0.2,2.9,0.3,5.7,0.1,8.6c-0.2,2.1-0.3,4.3-0.6,6.4c-0.7,4.8-2,9.4-3.8,13.9c-2.6,6.5-6,12.4-10.5,17.7c-2.5,3-5.2,5.7-8.2,8.1
		c-5.1,4.1-10.6,7.3-16.8,9.6c-3.1,1.1-6.2,2.1-9.4,2.7c-2.2,0.4-4.4,0.7-6.7,1c-1.3,0.2-2.7,0.2-4,0.3c-0.1,0-0.2,0-0.3,0.1
		c-1.1,0-2.2,0-3.4,0c-0.1,0-0.2,0-0.3-0.1c-2-0.2-4.1-0.3-6.1-0.5c-2.1-0.3-4.1-0.6-6.2-1c-5.2-1.1-10.2-2.9-15-5.3
		c-7.5-3.8-14.1-8.8-19.5-15.3C9.8,97.9,6.3,92,3.9,85.5C2.4,81.5,1.3,77.3,0.7,73c-0.3-2.3-0.6-4.6-0.7-6.9C0,64.1,0,62,0.1,60
		c0.1-2.4,0.4-4.8,0.7-7.2c0.5-3.3,1.3-6.5,2.3-9.7c2.5-7.7,6.3-14.8,11.6-21c3.1-3.7,6.7-7,10.6-9.9c4.1-3,8.5-5.4,13.1-7.2
		c4.6-1.9,9.4-3.2,14.4-3.9c2.7-0.4,5.4-0.6,8.1-0.7c0.3,0,0.5,0,0.8-0.1C62.2,0.4,62.8,0.4,63.3,0.4z"/>
	<path class="st0" d="M83.9,40.1c-0.9-0.8-1.7-1.5-2.5-2.2c-2.4-1.9-5-3.3-7.8-4.4c-2-0.8-4.1-1.3-6.3-1.6c-2-0.3-4.1-0.4-6.2-0.3
		c-5.9,0.3-11.3,2-16.3,5.3c-5.4,3.6-9.3,8.6-11.6,14.7c-1,2.8-1.7,5.7-1.9,8.7c-0.2,2.3-0.1,4.6,0.2,6.9c0.9,6.5,3.5,12.3,8.1,17.1
		c3.9,4.1,8.5,6.8,13.9,8.3c1.7,0.5,3.4,0.8,5.2,1c2.1,0.2,4.3,0.3,6.4,0.1c5.4-0.5,10.4-2.1,14.8-5.1c6-4.1,10-9.7,12.2-16.5
		c0.7-2.3,1.3-4.6,1.4-7c0.1-1.6,0.2-3.3,0.1-4.9c-0.3-4.7-1.7-9.1-4.2-13.2c0-0.1-0.1-0.2-0.2-0.3c1.5-1.3,2.9-2.7,4.5-3.9
		c2.6-2.1,5.3-4.1,8-6.1c1.5-1.1,3.1-2.1,4.6-3.1c0.7-0.5,1-0.4,1.5,0.3c3.1,4.7,5.4,9.8,6.8,15.2c0.6,2.4,1,4.8,1.3,7.2
		c0.4,3.5,0.4,6.9,0.1,10.4c-0.6,7.2-2.5,14.1-5.8,20.5c-2,3.9-4.4,7.6-7.3,10.9c-4.3,5-9.3,8.9-15.1,11.9c-4.2,2.2-8.6,3.9-13.2,5
		c-2,0.5-4,0.7-6,1c-2.8,0.4-5.6,0.5-8.4,0.4c-8.5-0.3-16.5-2.5-23.9-6.7c-3.5-2-6.8-4.3-9.9-7c-3.3-2.9-6.3-6.2-8.8-9.8
		c-2.7-3.8-4.7-7.9-6.2-12.2c-0.9-2.5-1.5-5.1-2-7.7c-0.3-1.6-0.5-3.2-0.6-4.9c-0.3-2.8-0.3-5.6-0.1-8.5c0.1-1.5,0.3-3,0.5-4.4
		c0.5-3.9,1.5-7.8,2.8-11.5c2-5.7,4.9-10.9,8.7-15.5c3.8-4.8,8.4-8.7,13.7-11.8c4.4-2.6,9.1-4.5,14.1-5.8c2.4-0.6,4.8-1.1,7.2-1.4
		C58.5,9.2,61.2,9,64,9.1c4.1,0.1,8.2,0.7,12.2,1.7c5.4,1.4,10.4,3.5,15,6.4c4,2.5,7.6,5.6,10.8,9.2c0.3,0.3,0.5,0.6,0.8,0.9
		c0.4,0.5,0.4,0.8-0.2,1.1c-1.1,0.6-2.3,1.2-3.4,1.9c-2.9,1.8-5.8,3.6-8.6,5.5C88.3,37.2,86.1,38.7,83.9,40.1z M32.4,93.2
		C32.4,93.2,32.3,93.1,32.4,93.2c0.5-2.7,1.1-5.2,1.6-7.8c0.1-0.3,0-0.4-0.2-0.6c-0.3-0.3-0.5-0.6-0.8-0.9c-0.5-0.6-1-1.1-1.5-1.7
		c-3.1,2.7-6.1,5.4-9.1,8c0.9,1,1.7,1.9,2.5,2.9c1.7-1.5,3.3-2.9,5-4.4c-0.5,2.2-0.9,4.4-1.4,6.5c-0.1,0.6-0.4,1.1-0.3,1.7
		c0,0.4,0.5,0.7,0.8,1c0.6,0.6,1.1,1.3,1.7,1.9c3.1-2.7,6.1-5.4,9.1-8c-0.9-1-1.7-2-2.6-2.9C35.7,90.3,34,91.8,32.4,93.2z M78,102.7
		c0.3-0.2,0.6-0.4,0.9-0.6c2-1.7,1.4-4.3-0.2-5.4c-1-0.6-2-0.6-3-0.3c-1.5,0.4-2.9,0.9-4.3,1.3c-1.3,0.4-2.5,0.8-3.8,1.2
		c1.3,3.9,2.5,7.7,3.8,11.6c1.3-0.4,2.6-0.9,3.9-1.3c-0.5-1.6-1-3.1-1.5-4.7c0.8-0.4,1.5-0.3,2.1,0.2c1,0.9,2.1,1.8,3.1,2.8
		c0.3,0.3,0.6,0.3,0.9,0.2c0.5-0.2,1.1-0.4,1.7-0.5c0.7-0.2,1.5-0.5,2.2-0.7c-0.9-0.8-1.7-1.5-2.5-2.3
		C80.4,103.4,79.4,102.6,78,102.7z M100.4,92.1c0.1-0.1,0.1-0.2,0.2-0.2c0.8-1.3,1.5-2.7,2.3-4c0.6-1.1,1.2-2.2,1.5-3.4
		c0.4-1.8,0-3.4-1.3-4.7c-1-1-2.2-1.7-3.6-2.1c-2.4-0.7-4.3-0.2-5.8,1.8c-0.6,0.8-1,1.7-1.5,2.5c-0.8,1.3-1.5,2.7-2.3,4.1
		C93.4,88.1,96.9,90.1,100.4,92.1z M65.6,99.3c-0.5,0-0.9-0.1-1.4-0.1c-0.8-0.1-1.6-0.1-2.4-0.2c-0.2,0-0.3,0.1-0.3,0.3
		c0,0.3,0,0.7-0.1,1c-0.2,2-0.3,4-0.5,6c-0.1,0.6-0.3,1.2-0.8,1.6c-0.7,0.5-1.5,0.5-2.2,0.3c-1.2-0.3-1.6-1.1-1.5-2.2
		c0-0.5,0.1-1.1,0.1-1.6c0.1-1.1,0.2-2.3,0.3-3.4c0.1-0.8,0.1-1.6,0.2-2.5c-1.4-0.1-2.7-0.2-4.1-0.3c0,0.1,0,0.1,0,0.2
		c-0.1,1.7-0.3,3.5-0.4,5.2c-0.1,1-0.2,2-0.1,3c0.1,1.9,1.2,3.2,3,3.9c1.7,0.6,3.4,0.8,5.2,0.6c2.4-0.2,4.2-2,4.4-4.3
		C65.2,104.3,65.4,101.8,65.6,99.3z M94.9,94.5c-1.8,1.5-3.7,3-5.5,4.5c-0.5-0.6-1-1.2-1.5-1.9c1.7-1.4,3.3-2.7,5-4.1
		c-0.5-0.7-1-1.3-1.6-1.9c-1.7,1.4-3.3,2.7-5,4.1c-0.4-0.5-0.8-1-1.2-1.5c1.8-1.5,3.6-2.9,5.3-4.4c-0.6-0.7-1.1-1.3-1.6-2
		c-2.9,2.3-5.7,4.7-8.5,7c2.6,3.2,5.1,6.3,7.7,9.4c1.5-1.2,2.9-2.4,4.3-3.6c1.4-1.2,2.9-2.4,4.3-3.6C96,95.9,95.5,95.2,94.9,94.5z
		 M37.3,99.7c-0.7,1.3-0.4,3.3,0.6,4.4c1.2,1.3,2.7,2.1,4.3,2.7c1.1,0.4,2.2,0.6,3.3,0.3c2.4-0.6,3.7-3.2,2.2-5.4
		c-0.7-1-1.5-1.7-2.4-2.4c-0.6-0.5-1.2-1-1.7-1.5c-0.2-0.2-0.3-0.5-0.2-0.8c0.1-0.3,0.4-0.5,0.8-0.5c0.1,0,0.3,0,0.4,0
		c1.3,0.4,1.9,1.1,1.7,2.5c1.2,0.5,2.3,1,3.5,1.5c0.4-1.3,0.4-2.5-0.5-3.6c-0.8-1-1.9-1.7-3.1-2.2c-1.1-0.5-2.3-1-3.5-0.9
		c-1.1,0.1-2.1,0.5-2.7,1.4c-0.7,1.2-0.7,2.5,0.3,3.7c0.8,0.9,1.7,1.7,2.6,2.5c0.4,0.4,0.9,0.8,1.2,1.2c0.5,0.7,0.2,1.4-0.6,1.6
		c-0.9,0.2-1.7-0.2-2.3-0.9c-0.6-0.6-0.6-1.4-0.4-2.3C39.6,100.7,38.5,100.2,37.3,99.7z M35.6,24.1c0.5,0.9,0.9,1.7,1.4,2.5
		c0.7,1.2,1.3,2.4,2.1,3.5c1,1.4,2.4,1.8,4,1.5c1.7-0.3,3.2-1.1,4.5-2.1c1.5-1.1,2.2-2.9,1.3-4.8c-0.4-0.8-0.9-1.6-1.3-2.4
		c-0.6-1.1-1.2-2.1-1.8-3.2c-1.1,0.6-2.2,1.1-3.3,1.6c1,1.8,2,3.6,3,5.4c0.5,0.9,0.3,1.7-0.5,2.3c-0.2,0.2-0.5,0.3-0.8,0.4
		c-1,0.4-1.8,0-2.3-0.8c-0.7-1.2-1.4-2.5-2.1-3.7c-0.3-0.6-0.6-1.1-1-1.7C37.8,23,36.7,23.6,35.6,24.1z M32.6,29.3
		c-0.6-0.5-1.2-0.9-1.8-1.4c-2,2.2-4,4.3-6,6.5c2.8,2.2,5.5,4.3,8.3,6.4c0.8-0.9,1.6-1.8,2.4-2.7c-1.1-0.9-2.2-1.7-3.4-2.6
		c1-1.1,2-2.2,3-3.3c-0.6-0.4-1.1-0.9-1.7-1.3c-1,1.1-2,2.2-3,3.3c-0.5-0.4-1-0.7-1.5-1.1C30.2,31.9,31.4,30.6,32.6,29.3z
		 M79.2,19.6c0,0.1,0,0.2,0,0.2c0.1,2.2,0.3,4.5,0.4,6.7c0,0.2-0.1,0.4-0.1,0.5c-0.8,1.1-1.5,2.2-2.3,3.4c1,0.6,2.1,1.2,3.1,1.8
		c0.8-1.1,1.6-2.2,2.3-3.3c0.1-0.1,0.3-0.3,0.4-0.3c1.5-0.6,2.9-1.1,4.4-1.6c0.9-0.3,1.7-0.6,2.7-1c-0.8-0.5-1.6-0.8-2.3-1.4
		c-0.8-0.6-1.5-0.6-2.4-0.1c-0.9,0.5-1.8,0.8-2.8,1.2c0-0.2,0-0.3,0-0.4c0-1.1,0-2.2,0-3.4c0-0.1,0-0.3-0.1-0.4
		C81.5,20.9,80.4,20.2,79.2,19.6z M62.8,26.4c-0.1-0.8-0.2-1.6-0.3-2.5c-1.9,0.2-3.8,0.4-5.7,0.6c-0.3-2.5-0.5-5-0.8-7.6
		c-1.2,0.1-2.4,0.3-3.7,0.4c0.3,3.4,0.7,6.7,1,10C56.5,27.1,59.6,26.7,62.8,26.4z M67.2,16.7c-0.9,3.3-1.8,6.6-2.6,9.9
		c3.1,0.6,6.1,1.3,9.2,1.9c0.2-0.8,0.4-1.6,0.6-2.4c-1.9-0.4-3.7-0.8-5.6-1.2c0-0.2,0.1-0.3,0.1-0.4c0.6-2.2,1.2-4.5,1.8-6.7
		c0.1-0.3,0-0.4-0.2-0.4C69.4,17.2,68.3,17,67.2,16.7z M29.2,76.1c-3.7,1.7-7.4,3.3-11.1,5c0.6,1.3,1.1,2.5,1.7,3.8
		c3.7-1.7,7.4-3.3,11.1-5C30.3,78.6,29.8,77.4,29.2,76.1z"/>
	<path class="st0" d="M40.6,55.3c1.9-1.3,4-2.2,6.3-2.2c2.1,0,3.7,0.8,4.9,2.5c1.3,1.8,2.2,3.8,3.1,5.8c0.6,1.4,1.3,2.9,1.9,4.3
		c0,0.1,0.1,0.2,0.2,0.3c0.7-0.6,1.4-1.3,2.1-1.9c3.2-2.8,6.3-5.7,9.5-8.4c4.3-3.8,8.8-7.5,13.4-10.9c5-3.7,10.1-7.3,15.3-10.6
		c4.6-2.9,9.3-5.7,14.1-8.2c0.2-0.1,0.5-0.2,0.8-0.3c0.1,0,0.3,0.1,0.4,0.1c-0.1,0.1-0.1,0.3-0.2,0.3c-1,0.7-2.1,1.3-3.1,2
		c-4.3,2.8-8.5,5.7-12.6,8.9c-5.5,4.4-10.8,9.2-15.5,14.4c-2.7,2.9-5.2,5.9-7.8,9c-2.9,3.5-5.5,7.1-7.8,11c-1.4,2.2-2.8,4.4-4.7,6.2
		c-1.8,1.8-3.9,3.1-6.4,3.5c-1.1,0.2-2.3,0-3.4,0c-0.1,0-0.3-0.2-0.3-0.4c-0.4-1.5-0.7-3-1-4.5c-1.4-5.5-3.1-10.8-5.9-15.7
		c-0.9-1.6-2-3.2-3-4.8C40.7,55.5,40.7,55.4,40.6,55.3z"/>
	<path class="st0" d="M73,102.4c-0.3-0.9-0.5-1.6-0.8-2.5c1-0.3,1.9-0.5,2.8-0.7c0.6-0.1,1,0.2,1.2,0.8c0.2,0.5,0,1-0.5,1.3
		C74.8,101.7,73.9,102,73,102.4z"/>
	<path class="st0" d="M100.1,87.2c-2-1.1-3.9-2.2-5.8-3.3c0.4-0.8,0.8-1.5,1.4-2.1c0.5-0.5,1.2-0.6,1.8-0.4c1.2,0.3,2.2,0.9,3.1,1.7
		c0.6,0.6,0.8,1.3,0.5,2.2C100.8,85.9,100.4,86.5,100.1,87.2z"/>
</g>
</svg>
