<svg id="Layer_1" data-name="Layer 1" fill="#1c4672" xmlns="http://www.w3.org/2000/svg" viewBox="0 0 128 128"><title>HOUSE</title><path d="M122.5,44.871,65,5.062a1.746,1.746,0,0,0-1.992,0L5.5,44.871a1.75,1.75,0,0,0-.443,2.435l5.12,7.4a1.748,1.748,0,0,0,2.435.442L18.17,51.3v70.2a1.75,1.75,0,0,0,1.75,1.75h88.16a1.749,1.749,0,0,0,1.75-1.75V51.3l5.554,3.844a1.743,1.743,0,0,0,1,.312,1.839,1.839,0,0,0,.313-.028,1.752,1.752,0,0,0,1.126-.726l5.12-7.4A1.75,1.75,0,0,0,122.5,44.871ZM21.67,114.25H44.713v5.5H21.67Zm26.543,5.5V82.5H79.787v37.25Zm58.117,0H83.287v-5.5H106.33Zm0-9H83.287v-30A1.749,1.749,0,0,0,81.537,79H46.463a1.75,1.75,0,0,0-1.75,1.75v30H21.67V48.881L64,19.578l42.33,29.3Zm9.607-59.476-6.844-4.737-.065-.045L65,16.012a1.746,1.746,0,0,0-1.992,0L18.971,46.493l-.063.043-6.845,4.738L8.935,46.753,64,8.629l55.065,38.124Z"/><path d="M38.159,66.075H36.083V64a1.75,1.75,0,0,0-3.5,0v2.075H30.508a1.75,1.75,0,1,0,0,3.5h2.075v2.076a1.75,1.75,0,0,0,3.5,0V69.575h2.076a1.75,1.75,0,1,0,0-3.5Z"/><path d="M21.424,21.47H23.5v2.076a1.75,1.75,0,0,0,3.5,0V21.47h2.076a1.75,1.75,0,0,0,0-3.5H27V15.9a1.75,1.75,0,1,0-3.5,0V17.97H21.424a1.75,1.75,0,0,0,0,3.5Z"/><path d="M104.255,17.645h2.075V19.72a1.75,1.75,0,0,0,3.5,0V17.645h2.075a1.75,1.75,0,0,0,0-3.5H109.83V12.069a1.75,1.75,0,0,0-3.5,0v2.076h-2.075a1.75,1.75,0,0,0,0,3.5Z"/><path d="M99.08,85.25a1.749,1.749,0,0,0,1.75-1.75V64a1.75,1.75,0,1,0-3.5,0V83.5A1.749,1.749,0,0,0,99.08,85.25Z"/><path d="M53.4,46.308A10.6,10.6,0,1,0,64,35.712,10.608,10.608,0,0,0,53.4,46.308Zm17.692,0a7.1,7.1,0,1,1-7.1-7.1A7.1,7.1,0,0,1,71.1,46.308Z"/></svg>