<?xml version="1.0" encoding="utf-8"?>
<!-- Generator: Adobe Illustrator 16.0.0, SVG Export Plug-In . SVG Version: 6.00 Build 0)  -->
<!DOCTYPE svg PUBLIC "-//W3C//DTD SVG 1.0//EN" "http://www.w3.org/TR/2001/REC-SVG-20010904/DTD/svg10.dtd">
<svg version="1.0" id="Layer_1" xmlns="http://www.w3.org/2000/svg" xmlns:xlink="http://www.w3.org/1999/xlink" x="0px" y="0px"
	 width="100px" height="100px" viewBox="0 0 100 100" enable-background="new 0 0 100 100" xml:space="preserve">
<polygon fill="#0288D1" points="10.001,53.333 10.001,60.001 16.667,60.001 16.667,90 83.333,90 83.333,60.001 89.999,60.001 
	89.999,53.333 76.667,44.447 76.667,30.001 69.998,30.001 69.998,40.001 50,26.668 "/>
<rect x="23.334" y="60.001" fill="#E1F5FE" width="53.333" height="23.332"/>
<polygon fill="#E1F5FE" points="77.979,53.333 50,34.679 22.021,53.333 "/>
<rect x="46.667" y="66.667" fill="#0288D1" width="23.331" height="10"/>
<rect x="30" y="66.667" fill="#0288D1" width="10" height="16.666"/>
<path fill="#81D4FA" d="M30,19.999c-3.685,0-6.666,2.988-6.666,6.667H20c0-3.679-2.988-6.667-6.667-6.667v-3.334
	C17.02,16.665,20,13.677,20,10h3.334c0,3.677,2.986,6.665,6.666,6.665V19.999z"/>
<path fill="#81D4FA" d="M50,14.999c0,2.76-2.235,5-5,5c-2.753,0-5-2.24-5-5C40,12.238,42.247,10,45,10
	C47.764,10,50,12.238,50,14.999z"/>
<path fill="#81D4FA" d="M66.666,19.999c0,1.836-1.498,3.333-3.334,3.333S60,21.834,60,19.999c0-1.835,1.496-3.334,3.332-3.334
	S66.666,18.163,66.666,19.999z"/>
<path fill="#81D4FA" d="M16.667,36.667c0,1.836-1.498,3.333-3.334,3.333s-3.332-1.498-3.332-3.333s1.496-3.334,3.332-3.334
	S16.667,34.833,16.667,36.667z"/>
</svg>
