<?xml version="1.0" encoding="utf-8"?>
<!-- Generator: Adobe Illustrator 25.2.3, SVG Export Plug-In . SVG Version: 6.00 Build 0)  -->
<svg version="1.1" id="Layer_1" xmlns="http://www.w3.org/2000/svg" xmlns:xlink="http://www.w3.org/1999/xlink" x="0px" y="0px"
	 viewBox="0 0 243 243" style="enable-background:new 0 0 243 243;" xml:space="preserve">
<style type="text/css">
	.st0{fill:#FFFFFF;}
</style>
<g>
	<path class="st0" d="M121.5,58.3c-34.3,0-62.7,27.9-62.7,62.7s27.9,62.7,62.7,62.7s62.7-28.4,62.7-62.7S155.8,58.3,121.5,58.3z
		 M121.5,161.2c-22,0-40.2-18.1-40.2-40.2s18.1-40.2,40.2-40.2S161.7,99,161.7,121S143.6,161.2,121.5,161.2z"/>
	<circle class="st0" cx="186.7" cy="56.8" r="14.2"/>
	<path class="st0" d="M223.4,20.1C210.7,6.9,192.6,0,172,0H71C28.4,0,0,28.4,0,71v100.4c0,21.1,6.9,39.2,20.6,52.4
		c13.2,12.7,30.9,19.1,51,19.1h100c21.1,0,38.7-6.9,51.4-19.1C236.2,211.2,243,193,243,172V71C243,50.5,236.2,32.8,223.4,20.1z
		 M221.5,172c0,15.2-5.4,27.4-14.2,35.8c-8.8,8.3-21.1,12.7-35.8,12.7h-100c-14.7,0-26.9-4.4-35.8-12.7
		c-8.8-8.8-13.2-21.1-13.2-36.3V71c0-14.7,4.4-26.9,13.2-35.8c8.3-8.3,21.1-12.7,35.8-12.7h100.9c14.7,0,26.9,4.4,35.8,13.2
		c8.3,8.8,13.2,21.1,13.2,35.3V172L221.5,172z"/>
</g>
</svg>
