<svg id="Layer_1" data-name="Layer 1" fill="#1c4672" xmlns="http://www.w3.org/2000/svg" viewBox="0 0 128 128"><title>MOP</title><path d="M112.377,73.3h-1.759V72.05a1.75,1.75,0,0,0-1.75-1.75H58.317a1.75,1.75,0,0,0-1.75,1.75V73.3h-1.75a1.75,1.75,0,0,0-1.75,1.75v5.157a21.526,21.526,0,0,0-5.19-1.463V74.25a1.75,1.75,0,0,0-1.75-1.75h-1.25V9.5a4.75,4.75,0,0,0-9.5,0v63h-1.25a1.751,1.751,0,0,0-1.75,1.75v4.493a21.783,21.783,0,0,0-18.5,21.507v.25c0,.017,0,.032,0,.048V121.5a1.751,1.751,0,0,0,1.75,1.75h49a1.746,1.746,0,0,0,1.478-.82,1.744,1.744,0,0,0,1.473.82H99.607a1.75,1.75,0,0,0,1.721-1.432l3.721-20.135a23.742,23.742,0,0,0,9.078-18.693V75.05A1.749,1.749,0,0,0,112.377,73.3ZM101.861,99.678a20.566,20.566,0,0,1-9,3.482v-1.052a1.75,1.75,0,0,0-1.75-1.75H76.079a1.75,1.75,0,0,0-1.75,1.75v1.051a20.367,20.367,0,0,1-7.956-2.829v-.08a21.614,21.614,0,0,0-2.961-10.935L61.659,79.8H82.845V90.079a1.75,1.75,0,0,0,1.75,1.75h16.1a1.75,1.75,0,0,0,1.75-1.75V79.8h3.091Zm-12.5,4.18v2.5H77.829v-2.5ZM107.118,76.3h-4.674V73.8h4.674Zm-8.174-2.5V88.329h-12.6V78.079c0-.01,0-.019,0-.029s0-.019,0-.029V73.8Zm-38.877,0H82.845v2.5H60.067Zm-3.5,4.25A1.744,1.744,0,0,0,58.1,79.777l.743,4.033a21.815,21.815,0,0,0-2.272-1.724ZM44.377,76v2.5h-8.5V76Zm-5.5-66.5a1.25,1.25,0,0,1,2.5,0v63h-2.5ZM35.623,82h9A18.253,18.253,0,0,1,60.24,90.826l.01.017a18.125,18.125,0,0,1,2.562,7.907H17.434A18.274,18.274,0,0,1,35.623,82Zm21,37.75v-3.375a1.75,1.75,0,0,0-3.5,0v3.375H36.956V107.875a1.75,1.75,0,0,0-3.5,0V119.75H27.123V114a1.75,1.75,0,0,0-3.5,0v5.75H17.377v-17.5h45.5v17.5Zm41.528,0H69.035l-2.658-14.411v-1a23.943,23.943,0,0,0,7.952,2.355v1.413a1.749,1.749,0,0,0,1.75,1.75H91.108a1.749,1.749,0,0,0,1.75-1.75v-1.42a24.1,24.1,0,0,0,8.157-2.434Zm12.476-36.76a20.189,20.189,0,0,1-4.469,12.7l2.94-15.908a1.746,1.746,0,0,0,1.52-1.727V76.8h.009Z"/><path d="M30.748,91.25H49.5a1.75,1.75,0,0,0,0-3.5H30.748a1.75,1.75,0,0,0,0,3.5Z"/><path d="M45.039,106.125a1.751,1.751,0,0,0-1.75,1.75v4a1.75,1.75,0,0,0,3.5,0v-4A1.751,1.751,0,0,0,45.039,106.125Z"/></svg>