<?xml version="1.0" encoding="utf-8"?>
<!-- Generator: Adobe Illustrator 16.0.0, SVG Export Plug-In . SVG Version: 6.00 Build 0)  -->
<!DOCTYPE svg PUBLIC "-//W3C//DTD SVG 1.0//EN" "http://www.w3.org/TR/2001/REC-SVG-20010904/DTD/svg10.dtd">
<svg version="1.0" id="Layer_1" xmlns="http://www.w3.org/2000/svg" xmlns:xlink="http://www.w3.org/1999/xlink" x="0px" y="0px"
	 width="100px" height="100px" viewBox="0 0 100 100" enable-background="new 0 0 100 100" xml:space="preserve">
<path fill="#0288D1" d="M10,23.333V50c0,3.686,2.984,6.667,6.667,6.667h6.667V90h33.333V75.508c2.835-1.009,5.392-2.617,7.474-4.699
	C67.761,67.188,70,62.188,70,56.667V50H50V23.333c0-3.683-2.984-6.667-6.667-6.667H16.667C12.984,16.666,10,19.654,10,23.333z"/>
<path fill="#81D4FA" d="M80,83.333C80,81.491,81.491,80,83.334,80h3.333v-3.333h-3.333c-1.843,0-3.334-1.491-3.334-3.334V70h-3.333
	v3.333c0,1.843-1.493,3.334-3.333,3.334H70V80h3.334c1.84,0,3.329,1.491,3.333,3.333v3.334H80V83.333z"/>
<path fill="#81D4FA" d="M80,30c0-3.686,2.988-6.667,6.667-6.667H90V20h-3.333C82.988,20,80,17.012,80,13.333V10h-3.333v3.333
	C76.667,17.012,73.68,20,70,20h-3.333v3.333H70c3.68,0,6.667,2.981,6.667,6.667v3.333H80V30z"/>
<path fill="#81D4FA" d="M70,38.333c0,2.761-2.232,5-5,5c-2.754,0-5-2.239-5-5c0-2.76,2.246-5,5-5C67.768,33.333,70,35.573,70,38.333
	z"/>
<path fill="#81D4FA" d="M60,13.333c0,1.836-1.497,3.333-3.333,3.333s-3.333-1.498-3.333-3.333S54.831,10,56.667,10
	S60,11.497,60,13.333z"/>
<path fill="#81D4FA" d="M90,56.667C90,58.503,88.503,60,86.667,60s-3.333-1.497-3.333-3.333s1.497-3.334,3.333-3.334
	S90,54.831,90,56.667z"/>
<path fill="#E1F5FE" d="M30,83.333h20v-6.666c-5.521,0-10.521-2.24-14.141-5.858l4.714-4.715c2.52,2.52,5.866,3.906,9.43,3.906
	c3.56,0,6.905-1.387,9.425-3.906c2.518-2.52,3.906-5.865,3.906-9.427H30V83.333z"/>
<rect x="30" y="23.333" fill="#E1F5FE" width="13.333" height="26.667"/>
<rect x="16.667" y="23.333" fill="#E1F5FE" width="6.667" height="26.667"/>
</svg>
