<?xml version="1.0" encoding="utf-8"?>
<!-- Generator: Adobe Illustrator 25.2.3, SVG Export Plug-In . SVG Version: 6.00 Build 0)  -->
<svg version="1.1" id="Layer_1" xmlns="http://www.w3.org/2000/svg" xmlns:xlink="http://www.w3.org/1999/xlink" x="0px" y="0px"
	 viewBox="0 0 400 400" style="enable-background:new 0 0 400 400;" xml:space="preserve">
<style type="text/css">
	.st0{fill:#FFFFFF;}
</style>
<g>
	<path class="st0" d="M196,0c2.6,0,5.1,0,7.7,0c0.3,0.1,0.7,0.2,1,0.2c5.8,0.1,11.6,0.6,17.3,1.2c7,0.8,14,2,20.9,3.5
		c17,3.8,33.2,9.8,48.7,17.9c20.3,10.7,38.3,24.4,53.9,41.1c14.2,15.2,26,32.1,35,50.9c11.6,24.2,18.3,49.6,19.2,76.5
		c0,0.3,0.2,0.6,0.2,0.9c0,5.2,0,10.4,0,15.6c-0.1,0.4-0.2,0.8-0.2,1.1c-0.2,2.8-0.3,5.7-0.5,8.5c-0.6,7.5-1.7,14.9-3.2,22.3
		c-3.9,19-10.5,37.1-19.8,54.2c-10.7,19.8-24.3,37.3-40.8,52.6c-13.7,12.7-28.8,23.3-45.4,31.8c-13.2,6.8-27,12-41.4,15.7
		c-7.8,2-15.7,3.5-23.6,4.5c-5.1,0.6-10.2,0.9-15.3,1.3c-0.4,0-0.8,0.1-1.1,0.2c-5.6,0-11.2,0-16.8,0c-0.4-0.1-0.8-0.2-1.1-0.2
		c-3.7-0.3-7.5-0.5-11.2-0.9c-7.2-0.7-14.4-1.9-21.5-3.5c-19.9-4.4-38.7-11.7-56.3-21.8C84,363.5,68.3,351,54.5,336.2
		c-14.6-15.6-26.4-33-35.5-52.2c-6.9-14.6-11.9-29.9-15-45.7c-1.2-6.2-2.2-12.3-2.7-18.6c-0.3-3.5-0.5-6.9-0.8-10.4
		c-0.1-0.8,0.1-1.7-0.4-2.4c0-4.5,0-9,0-13.4c0.5-0.8,0.4-1.7,0.4-2.5c0.3-3.4,0.5-6.9,0.8-10.3c0.6-7.1,1.8-14.1,3.2-21.1
		c3.8-17.8,9.9-34.7,18.3-50.8C33.3,88.4,47,70.4,63.6,54.8c15.5-14.6,32.9-26.5,52.2-35.6C140.9,7.3,167.3,0.9,195,0.2
		C195.4,0.2,195.7,0.1,196,0z M200.1,366.8c3-0.1,6-0.2,9-0.3c7.1-0.3,14.1-1.2,21.1-2.4c16.3-2.9,31.8-8.2,46.5-15.7
		c17.1-8.8,32.2-20.1,45.3-34.1c18.4-19.6,31.2-42.4,38.6-68.2c2.1-7.3,3.6-14.7,4.7-22.1c0.8-5.5,1.3-11,1.5-16.6
		c0.1-3.1,0.1-6.1,0.1-9.2c0-2.5-0.1-5-0.2-7.4c-0.4-7.8-1.4-15.4-2.9-23c-2.8-14.2-7.4-27.8-13.7-40.8
		c-9.1-18.5-21.2-34.8-36.2-48.8c-15.2-14.2-32.5-25.1-51.8-32.8c-17.2-6.9-35.1-10.7-53.6-11.6c-3.5-0.2-7-0.1-10.5-0.1
		c-2.5,0-5,0.1-7.5,0.2c-7.3,0.4-14.6,1.3-21.8,2.7c-14.7,2.8-28.7,7.5-42.2,14.1c-17.9,8.8-33.7,20.5-47.4,35
		c-17.7,18.9-30.3,40.7-37.9,65.4c-2.5,8.2-4.3,16.4-5.5,24.9c-0.8,5.5-1.3,10.9-1.6,16.5c-0.2,3.5-0.2,7.1-0.1,10.7
		c0.1,3.6,0.2,7.1,0.5,10.7c0.5,7,1.5,14,2.9,20.9c3.1,15.2,8.3,29.8,15.5,43.5c8.6,16.4,19.6,30.9,33.1,43.6
		c12.4,11.7,26.2,21.2,41.5,28.6C150.3,361.3,174.6,366.7,200.1,366.8z"/>
	<path class="st0" d="M134.4,97.4c5.4-0.1,9.4,2.1,12.6,5.8c1.1,1.2,2,2.6,3,3.9c7.6,10.8,15.3,21.6,22.9,32.4
		c1.5,2.1,2.7,4.2,3.7,6.6c2,4.9,1.7,9.6-1,14.1c-1.6,2.7-3.6,5-5.7,7.2c-2.5,2.7-5,5.4-7.5,8.1c-1.4,1.5-1.9,3.3-1.4,5.3
		c0.3,0.9,0.6,1.9,1.1,2.7c2.5,4.2,5.4,8.1,8.5,11.9c10.9,13.4,23,25.4,36.7,35.9c2.7,2.1,5.6,4,8.5,5.9c1.4,0.9,2.9,1.3,4.5,1.3
		c1.7,0,3.2-0.6,4.4-1.8c2.9-2.9,5.8-5.7,8.8-8.5c1.8-1.8,3.8-3.3,6-4.6c4.3-2.4,8.7-2.7,13.3-1c2.4,0.9,4.6,2.1,6.6,3.6
		c11.7,8.2,23.3,16.4,34.9,24.5c2.4,1.7,4.4,3.6,5.8,6.1c2.6,4.3,2.9,8.9,1.7,13.7c-0.7,2.9-1.9,5.5-3.6,7.9
		c-2.9,4.2-6,8.1-9.9,11.4c-7.5,6.4-16.1,10.3-25.9,11.6c-2.7,0.4-5.5,0.6-8.2,0.6c-5.9,0-11.6-0.8-17.3-2.2
		c-10.4-2.5-20.1-6.6-29.5-11.6c-12.9-6.9-24.7-15.4-35.9-24.8c-7.4-6.2-14.5-12.9-21.2-19.8c-11.1-11.4-21.2-23.5-30-36.7
		c-6.5-9.7-12.1-19.9-16.3-30.8c-2.5-6.4-4.4-13-5.5-19.8c-1.3-8.4-1.4-16.7,0.7-25c2.3-9.1,6.8-16.9,13.5-23.4
		c4.8-4.7,10.4-8,16.9-9.9C131.3,97.6,133,97.4,134.4,97.4z"/>
</g>
</svg>
