<?xml version="1.0" encoding="utf-8"?>
<!-- Generator: Adobe Illustrator 25.2.3, SVG Export Plug-In . SVG Version: 6.00 Build 0)  -->
<svg version="1.1" id="Layer_1" xmlns="http://www.w3.org/2000/svg" xmlns:xlink="http://www.w3.org/1999/xlink" x="0px" y="0px"
	 viewBox="0 0 224.8 115" style="enable-background:new 0 0 224.8 115;" xml:space="preserve">
<style type="text/css">
	.st0{fill:#FFFFFF;}
</style>
<g>
	<path class="st0" d="M74.7,9.9c-1.4-2.3-2.8-4.7-4.2-7c-1.3-2.1-3.5-3.2-5.8-2.7c-1.8,0.4-3,1.5-3.9,3.1c-18,31.1-36,62.2-54,93.3
		c-2,3.4-4,6.7-6,10.2c-1.3,2.2-1,4.7,0.7,6.5c1.2,1.3,2.8,1.7,4.6,1.7c20.3,0,40.5,0,60.8,0c0,0,0,0,0,0c0,0,0,0,0,0
		c12.1,0,24.2,0,36.3,0c8.1,0,16.2,0,24.4-0.1c2.6,0,4.6-1.4,5.3-3.8c0.5-1.7,0.1-3.3-0.8-4.8C112.9,74.1,93.8,42,74.7,9.9z
		 M121.7,106.5c-0.2,0-0.4,0-0.5,0c-14.2,0.1-28.4,0.1-42.6,0.2c-4,0-8.1,0-12.1,0c0,0.1,0-0.1,0,0c-14.5,0-28.8-0.3-43.3-0.3
		c-3.8,0-7.5,0.1-11.3,0.1c-1.2,0-1.4-0.2-0.7-1.3C23.6,84.1,35.6,63.5,48,42.4c5.8-9.9,11.5-19.7,17.3-29.6
		c0.1-0.1,0.1-0.3,0.2-0.4c0.4-0.7,0.7-0.7,1.1,0c1.7,2.8,3.3,5.6,5,8.4c16.4,27.5,32.8,55,49.3,82.6c0.5,0.8,0.9,1.5,1.4,2.3
		C122.5,106.2,122.4,106.5,121.7,106.5z"/>
	<path class="st0" d="M63.4,98.9C63,98,63,98,63.8,97.4c2.3-1.7,4.7-3.4,7-5c1-0.7,1.7-1.8,2-3c0.4-1.7,0.7-3.4,0.9-5.2
		c0.2-1.3,0.6-2.4,1.8-3.1c1.7-1.1,3.3-2.3,4.9-3.5c1-0.8,2.1-0.9,3.3-0.6c3.4,1,6.9,1.8,10.3,2.8c0.9,0.2,1.8,0.5,2.6,0.7
		c0.9,0,2.1-0.8,2.3-1.4c0.3-0.7,0.1-1.4-0.5-1.9c-0.3-0.3-0.7-0.5-1.1-0.6c-2.5-0.7-5-1.6-7.5-2.1c-3.1-0.6-4.9-2.4-6.1-5.1
		c-0.4-0.9-0.3-1.6,0.2-2.4c2-3,4-6,5.9-9c0.9-1.3,0.4-2.5-1.2-2.9c-1.1-0.2-2,0.1-2.6,1.1c-1.2,1.9-2.4,3.9-3.7,5.9
		c-1.7,2.7-3.8,5.1-6.5,7c-4.5,3.1-9,6.2-13.5,9.4c-1,0.7-1.1,0.6-1.8-0.3c-1.6-2.2-3.2-4.4-4.7-6.6c-0.9-1.2-1.2-1.3-2.4-0.5
		c-1.3,0.9-2.6,1.7-3.9,2.6c-0.3,0.2-0.7,0.4-0.9,0.7c-0.2,0.2-0.5,0.6-0.4,0.8c0,0.2,0.5,0.5,0.7,0.5c0.8,0,1.5,0,2.3-0.1
		c1.2-0.2,1.4-0.2,2.1,0.8c1.8,2.6,3.6,5.1,5.4,7.7c1,1.4,1.7,1.6,3.1,0.7c2.1-1.3,4.2-2.7,6.3-4c0.3-0.2,0.6-0.4,1-0.6
		c0.4-0.2,0.6-0.1,0.6,0.3c0,0.2,0,0.4,0,0.6c-0.3,1.8-0.7,3.5-0.9,5.3c-0.2,1.7-1.2,2.8-2.6,3.7c-2.4,1.5-4.8,3.2-7.1,4.8
		c-1.2,0.8-1.2,1.9-0.1,2.9c1.2,1,2.4,2,3.5,3c0.1,0.1,0.3,0.3,0.4,0.3c0.4,0.1,0.8,0.2,1.2,0c0.5-0.2,0.2-0.7,0.1-1
		C63.8,99.6,63.6,99.3,63.4,98.9z"/>
	<path class="st0" d="M47.3,92c0-3.9,0-7.9,0-11.8c0-1-0.2-1.2-1.2-1.2c-1.5,0-3,0-4.5,0c-4.3,0-8.5,0.1-12.8,0.1
		c-0.4,0-0.9,0.2-1.1,0.5c-0.3,0.5-0.5,1.1-0.7,1.6c-0.2,0.6,0.1,1,0.7,1.1c0.2,0,0.5,0,0.8,0c4.8,0,9.5,0,14.3,0c0.9,0,1,0.1,1,1
		c0,1,0.1,2,0.1,3c0,5.6,0.1,11.2,0.1,16.8c0,2.1,0,2.1,2.2,2c1.2-0.1,1.2-0.3,1.2-1.5C47.3,99.8,47.3,95.9,47.3,92z"/>
	<path class="st0" d="M90,97.2c-1.7-0.5-3.4-0.7-5.1-0.7c-2.7,0.1-5.2,0.9-7.8,1.6c-1.8,0.5-3.7,1.1-5.6,0.9
		c-1.9-0.3-3.7-0.6-5.5-0.9c-0.3,0-1,0.1-1,0.2c-0.1,0.4,0,1,0.2,1.3c0.5,0.5,1.2,1,1.8,1.3c2.2,0.9,4.6,1.2,6.9,0.8
		c2.2-0.4,4.4-1.1,6.5-1.7c3.4-1,6.8-1,10.2,0.2c2,0.7,4.1,1.1,6.1,1.6c0-0.1,0-0.1,0.1-0.2c1.1,0,2.2-0.1,3.1-0.8
		c0.4-0.3,0.6-0.8,0.9-1.3c-0.5-0.2-1-0.5-1.5-0.5C96.1,98.9,93,98.2,90,97.2z"/>
	<path class="st0" d="M85.5,68.3c0,2.3,1.9,4.2,4.2,4.2c2.3,0,4.2-1.8,4.2-4.2c0-2.3-1.8-4.2-4.2-4.3C87.5,64,85.5,66,85.5,68.3z"/>
	<path class="st0" d="M57.2,97.6c-0.6-0.3-1.4-0.6-2-0.5c-1.1,0.2-2.2,0.7-3.3,1.1c-0.2,0.1-0.4,0.3-0.4,0.5c0,0.2,0.3,0.4,0.5,0.5
		c1,0.2,2,0.4,2.7,0.6c0.9-0.1,1.5-0.1,2.1-0.3c0.3-0.1,0.8-0.5,0.8-0.8C57.7,98.4,57.5,97.8,57.2,97.6z"/>
	<path class="st0" d="M98.8,33.8h2.6c1.8,0,3.2-0.5,4.1-1.5c0.9-1,1.4-2.4,1.4-4.2c0-3.6-1.9-5.4-5.6-5.4h-5.7v15.6h3.2V33.8z
		 M98.8,25.5h2.6c0.8,0,1.4,0.2,1.8,0.6c0.4,0.4,0.6,1.1,0.6,2.1c0,2-0.8,2.9-2.4,2.9h-2.6V25.5z"/>
	<path class="st0" d="M113.7,38.6c0.8,0,1.8-0.3,2.9-0.9v0.6h3.1V26.9h-3.1v8.6l-0.3,0.1c-0.6,0.2-1.2,0.3-1.9,0.3
		c-0.7,0-1.1-0.2-1.3-0.6c-0.2-0.4-0.3-1.2-0.3-2.3v-6.1h-3.1v6c0,2.1,0.3,3.5,0.8,4.4C111.1,38.2,112.1,38.6,113.7,38.6z"/>
	<path class="st0" d="M127.9,38.6c2.1,0,3.6-0.4,4.4-1.3c0.9-0.9,1.3-2.4,1.3-4.7c0-2.3-0.4-3.8-1.1-4.7c-0.7-0.9-1.9-1.3-3.5-1.3
		c-0.7,0-1.5,0.2-2.5,0.6v-4.9h-3.1v16l0.9,0.1C126.1,38.6,127.3,38.6,127.9,38.6z M126.5,29.7l0.3-0.1c0.6-0.2,1.1-0.2,1.7-0.2
		c1.3,0,1.9,1,1.9,3.1c0,1.3-0.2,2.2-0.5,2.7c-0.4,0.5-1,0.7-2.1,0.7c-0.2,0-0.7,0-1.4-0.1V29.7z"/>
	<rect x="137" y="22.3" class="st0" width="3.1" height="16.1"/>
	<rect x="144" y="26.9" class="st0" width="3.1" height="11.5"/>
	<rect x="144" y="22.3" class="st0" width="3.1" height="3.1"/>
	<path class="st0" d="M155.1,38.6c0.9,0,2.1-0.2,3.7-0.5l-0.1-2.5l-2.7,0.2c-1.1,0-1.8-0.2-2.1-0.7c-0.3-0.5-0.5-1.3-0.5-2.6
		c0-1.3,0.2-2.1,0.5-2.6c0.3-0.5,1-0.7,2.1-0.7c0.6,0,1.5,0.1,2.7,0.2l0.1-2.4l-0.6-0.1c-1.2-0.2-2.3-0.4-3.1-0.4
		c-1.7,0-2.9,0.5-3.7,1.4c-0.8,0.9-1.1,2.5-1.1,4.6s0.4,3.7,1.1,4.6C152.1,38.2,153.4,38.6,155.1,38.6z"/>
	<polygon class="st0" points="110.5,44.9 110.5,60.5 119.4,60.5 119.4,57.7 113.6,57.7 113.6,44.9 	"/>
	<rect x="122" y="49" class="st0" width="3.1" height="11.5"/>
	<rect x="122" y="44.4" class="st0" width="3.1" height="3.1"/>
	<path class="st0" d="M128.8,49.4l0.1,2.1l4.3-0.2c0.5,0,0.8,0.1,1,0.3c0.2,0.2,0.3,0.5,0.3,1v0.7l-2.5,0.2c-1.4,0.1-2.4,0.4-3,0.9
		c-0.7,0.5-1,1.4-1,2.6c0,2.5,1.2,3.8,3.6,3.8c1.1,0,2.3-0.3,3.4-0.8c0.5,0.3,0.9,0.5,1.4,0.6c0.5,0.1,1.1,0.2,1.9,0.2l0.1-2.3
		c-0.3-0.1-0.5-0.2-0.6-0.3c-0.1-0.1-0.2-0.4-0.2-0.8v-4.8c0-1.3-0.3-2.3-1-2.9c-0.7-0.6-1.7-0.9-3.2-0.9
		C132,48.7,130.4,49,128.8,49.4z M134.5,57.9l-0.3,0.1c-0.7,0.2-1.3,0.3-1.9,0.3c-0.8,0-1.1-0.4-1.1-1.3c0-0.8,0.4-1.3,1.3-1.4
		l2.1-0.2V57.9z"/>
	<path class="st0" d="M150.4,59.5c0.9-0.9,1.3-2.4,1.3-4.7c0-2.3-0.4-3.8-1.1-4.7c-0.7-0.9-1.9-1.3-3.5-1.3c-0.7,0-1.5,0.2-2.5,0.6
		v-4.9h-3.1v16l0.9,0.1c1.7,0.2,2.9,0.2,3.6,0.2C148,60.8,149.5,60.3,150.4,59.5z M144.5,51.8l0.3-0.1c0.6-0.2,1.1-0.2,1.7-0.2
		c1.3,0,1.9,1,1.9,3.1c0,1.3-0.2,2.2-0.5,2.7c-0.4,0.5-1,0.7-2.1,0.7c-0.2,0-0.7,0-1.4-0.1V51.8z"/>
	<rect x="154.9" y="44.4" class="st0" width="3.1" height="3.1"/>
	<rect x="154.9" y="49" class="st0" width="3.1" height="11.5"/>
	<rect x="161.9" y="44.4" class="st0" width="3.1" height="16.1"/>
	<rect x="168.9" y="44.4" class="st0" width="3.1" height="3.1"/>
	<rect x="168.9" y="49" class="st0" width="3.1" height="11.5"/>
	<path class="st0" d="M182.1,60.4L182,58l-1.7,0c-0.3,0-0.5-0.1-0.7-0.2c-0.1-0.1-0.2-0.3-0.3-0.5c0-0.2,0-0.5,0-1v-4.7h2.8V49h-2.8
		v-3.2h-3.1V49h-1.4v2.6h1.4v4.8c0,1.7,0.3,2.8,0.8,3.4c0.5,0.6,1.4,0.9,2.8,0.9C180.3,60.8,181.1,60.7,182.1,60.4z"/>
	<polygon class="st0" points="191.7,49 189.6,57.9 189.1,57.9 187,49 183.9,49 186.8,60.5 188.9,60.5 187.7,65.3 190.7,65.3 
		194.7,49 	"/>
	<rect x="124.1" y="66.5" class="st0" width="3.2" height="15.6"/>
	<path class="st0" d="M137,70.4c-0.9,0-1.8,0.3-2.9,0.9v-0.6h-3.1v11.5h3.1v-8.6l0.3-0.1c0.6-0.2,1.2-0.3,1.8-0.3
		c0.7,0,1.1,0.2,1.4,0.7c0.2,0.5,0.3,1.2,0.3,2.2v6.1h3.1v-6.2c0-1.9-0.3-3.3-0.9-4.2C139.6,70.8,138.5,70.4,137,70.4z"/>
	<path class="st0" d="M149.7,75.1c-1.2-0.2-2-0.4-2.3-0.5c-0.3-0.1-0.4-0.3-0.4-0.6c0-0.3,0.1-0.5,0.3-0.7c0.2-0.1,0.7-0.2,1.5-0.2
		c0.8,0,2.1,0.1,4,0.4l0-2.6l-0.8-0.1c-1.6-0.3-2.8-0.4-3.7-0.4c-1.3,0-2.4,0.3-3.2,0.9c-0.8,0.6-1.2,1.5-1.2,2.8
		c0,1.2,0.3,2.1,0.9,2.5c0.6,0.5,1.5,0.8,2.7,1c1.2,0.2,1.9,0.4,2.2,0.5c0.3,0.1,0.4,0.4,0.4,0.6c0,0.3-0.1,0.5-0.4,0.7
		c-0.3,0.1-0.8,0.2-1.5,0.2c-0.7,0-2.1-0.1-4-0.4l-0.1,2.6l0.7,0.1c1.4,0.3,2.7,0.4,3.7,0.4c3.1,0,4.6-1.2,4.6-3.7
		c0-1.1-0.3-2-0.8-2.5C151.8,75.7,150.9,75.3,149.7,75.1z"/>
	<path class="st0" d="M162.8,79.2l-0.3,0.1c-0.6,0.2-1.2,0.3-1.9,0.3c-0.7,0-1.1-0.2-1.3-0.6c-0.2-0.4-0.3-1.2-0.3-2.3v-6.1h-3.1v6
		c0,2.1,0.3,3.5,0.8,4.4c0.6,0.9,1.6,1.3,3.2,1.3c0.8,0,1.8-0.3,2.9-0.9v0.6h3.1V70.6h-3.1V79.2z"/>
	<path class="st0" d="M172.5,70.6h-3.1v11.5h3.1v-7.7l0.5-0.2c0.9-0.3,2-0.5,3.2-0.8v-3.1c-1.2,0.2-2.4,0.7-3.7,1.5V70.6z"/>
	<path class="st0" d="M187.6,79.8c-0.1-0.1-0.2-0.4-0.2-0.8v-4.8c0-1.3-0.3-2.3-1-2.9c-0.7-0.6-1.7-0.9-3.2-0.9
		c-1.5,0-3,0.2-4.7,0.7l0.1,2.1L183,73c0.5,0,0.8,0.1,1,0.3c0.2,0.2,0.3,0.5,0.3,1v0.7l-2.5,0.2c-1.4,0.1-2.4,0.4-3,0.9
		c-0.7,0.5-1,1.4-1,2.6c0,2.5,1.2,3.8,3.6,3.8c1.1,0,2.3-0.3,3.4-0.8c0.5,0.3,0.9,0.5,1.4,0.6c0.5,0.1,1.1,0.2,1.9,0.2l0.1-2.3
		C187.9,80,187.7,79.9,187.6,79.8z M184.4,79.5l-0.3,0.1c-0.7,0.2-1.3,0.3-1.9,0.3c-0.8,0-1.1-0.4-1.1-1.3c0-0.8,0.4-1.3,1.3-1.4
		l2.1-0.2V79.5z"/>
	<path class="st0" d="M197,70.4c-0.9,0-1.8,0.3-2.9,0.9v-0.6h-3.1v11.5h3.1v-8.6l0.3-0.1c0.6-0.2,1.2-0.3,1.8-0.3
		c0.7,0,1.1,0.2,1.4,0.7c0.2,0.5,0.3,1.2,0.3,2.2v6.1h3.1v-6.2c0-1.9-0.3-3.3-0.9-4.2C199.6,70.8,198.5,70.4,197,70.4z"/>
	<path class="st0" d="M209.7,73.1c0.6,0,1.5,0.1,2.7,0.2l0.1-2.4l-0.6-0.1c-1.2-0.2-2.3-0.4-3.1-0.4c-1.7,0-2.9,0.5-3.7,1.4
		c-0.8,0.9-1.1,2.5-1.1,4.6s0.4,3.7,1.1,4.6c0.7,1,2,1.4,3.7,1.4c0.9,0,2.1-0.2,3.7-0.5l-0.1-2.5l-2.7,0.2c-1.1,0-1.8-0.2-2.1-0.7
		c-0.3-0.5-0.5-1.3-0.5-2.6c0-1.3,0.2-2.1,0.5-2.6C207.9,73.3,208.6,73.1,209.7,73.1z"/>
	<path class="st0" d="M224.8,75.6c0-3.5-1.7-5.2-5-5.2c-3.4,0-5.1,2.1-5.1,6.2c0,2.1,0.4,3.6,1.2,4.5c0.8,0.9,2,1.4,3.8,1.4
		c1.4,0,3-0.2,4.8-0.6l0-2.3l-0.6,0.1c-1.1,0.1-2.4,0.1-3.8,0.1c-0.7,0-1.2-0.2-1.6-0.5c-0.4-0.3-0.5-0.8-0.6-1.5h6.8L224.8,75.6z
		 M217.8,75.3c0-0.9,0.2-1.5,0.5-1.9c0.3-0.4,0.8-0.6,1.5-0.6c0.7,0,1.2,0.2,1.5,0.5c0.3,0.4,0.4,1,0.4,1.9H217.8z"/>
</g>
</svg>
