<?xml version="1.0" encoding="utf-8"?>
<!-- Generator: Adobe Illustrator 16.0.0, SVG Export Plug-In . SVG Version: 6.00 Build 0)  -->
<!DOCTYPE svg PUBLIC "-//W3C//DTD SVG 1.0//EN" "http://www.w3.org/TR/2001/REC-SVG-20010904/DTD/svg10.dtd">
<svg version="1.0" id="Layer_1" xmlns="http://www.w3.org/2000/svg" xmlns:xlink="http://www.w3.org/1999/xlink" x="0px" y="0px"
	 width="100px" height="100px" viewBox="0 0 100 100" enable-background="new 0 0 100 100" xml:space="preserve">
<path fill="#0288D1" d="M63.332,63.333v-6.666H30v-3.334c0-4.345-2.793-8.007-6.668-9.388v-7.279C23.332,32.988,26.322,30,30,30
	h33.332v-6.667H30c-7.364,0-13.334,5.969-13.334,13.333v7.279C12.791,45.323,10,48.988,10,53.333v23.334h53.332V70H16.666V53.333
	C16.666,51.494,18.158,50,20,50c1.84,0,3.332,1.494,3.332,3.333v10H63.332z"/>
<path fill="#E1F5FE" d="M63.332,56.667H30v-3.334c0-4.345-2.793-8.007-6.668-9.388v-7.279C23.332,32.988,26.322,30,30,30h33.332
	V56.667z"/>
<path fill="#E1F5FE" d="M63.332,70H16.666V53.333C16.666,51.494,18.158,50,20,50c1.84,0,3.332,1.494,3.332,3.333v10h40V70z"/>
<path fill="#81D4FA" d="M75,30c0,1.836-1.498,3.333-3.334,3.333S68.332,31.836,68.332,30s1.498-3.333,3.334-3.333S75,28.164,75,30z"
	/>
<path fill="#0288D1" d="M56.666,36.667L60,43.333h10v33.333c0,3.682-2.984,6.666-6.668,6.666H10V90h53.332
	c7.363,0,13.334-5.971,13.334-13.333V43.333h10L90,36.667H56.666z"/>
<path fill="#81D4FA" d="M83.332,23.333c0-1.843,1.491-3.333,3.334-3.333H90v-3.333h-3.334c-1.843,0-3.334-1.491-3.334-3.333V10H80
	v3.333c0,1.839-1.494,3.333-3.334,3.333h-3.334V20c0,0,3.334,0,3.334-0.003c1.84,0.003,3.33,1.494,3.334,3.336v3.333h3.332V23.333z"
	/>
<path fill="#81D4FA" d="M70,15c0,2.76-2.236,5-5,5c-2.755,0-5-2.24-5-5s2.245-5,5-5C67.764,10,70,12.24,70,15z"/>
<path fill="#81D4FA" d="M53.332,16.667C53.332,18.502,51.836,20,50,20s-3.334-1.498-3.334-3.333c0-1.835,1.499-3.333,3.334-3.333
	S53.332,14.831,53.332,16.667z"/>
</svg>
