<svg id="Layer_1" data-name="Layer 1" fill="#1c4672" xmlns="http://www.w3.org/2000/svg" viewBox="0 0 128 128"><title>SPONGE</title><path d="M107.32,31.86c-4.078,0-8.668.886-13.916,1.96a7.74,7.74,0,0,0-15.21,2.787c-2.841.394-5.563.669-8.236.836a10.034,10.034,0,0,0-5.976-4.294,9.962,9.962,0,0,0-10.658-5.16,9.984,9.984,0,0,0-18.888,3.539,14.22,14.22,0,0,0-3.181,1.62A57.284,57.284,0,0,0,20.68,31.86c-9.975,0-15.93,6.561-15.93,17.55V105.7c0,10.989,5.955,17.55,15.93,17.55,4.447,0,9.5-1.043,15.342-2.25,8.015-1.654,17.1-3.53,27.978-3.53s19.963,1.876,27.978,3.53c5.846,1.207,10.9,2.25,15.342,2.25,9.975,0,15.93-6.561,15.93-17.55V49.41C123.25,38.421,117.3,31.86,107.32,31.86Zm-21.445-.485a4.25,4.25,0,1,1-4.25,4.25A4.255,4.255,0,0,1,85.875,31.375ZM36.6,34.524a1.752,1.752,0,0,0,1.318-1.78L37.9,32.43A6.486,6.486,0,0,1,50.6,30.589a1.75,1.75,0,0,0,2.29,1.143,6.458,6.458,0,0,1,8.262,3.622,1.747,1.747,0,0,0,1.367,1.07,6.479,6.479,0,0,1,.462,12.738,1.75,1.75,0,0,0-1.37,1.622,8.6,8.6,0,0,1-.767,3.15c-.011.023-.02.047-.03.071a8.589,8.589,0,0,1-14.856,1.23,1.747,1.747,0,0,0-2.181-.589A10.732,10.732,0,0,1,32.612,36.479c.034-.021.065-.046.1-.07A10.736,10.736,0,0,1,36.6,34.524ZM8.25,49.41c0-5.247,1.615-14.05,12.43-14.05a45.371,45.371,0,0,1,7.378.765A14.078,14.078,0,0,0,25.25,47.508a35.923,35.923,0,0,0-4.57-.318c-5.454,0-9.7,1.974-12.43,5.549Zm111.5,56.29c0,5.247-1.615,14.05-12.43,14.05-4.09,0-8.976-1.009-14.634-2.178-7.774-1.6-17.449-3.6-28.686-3.6s-20.912,2-28.686,3.6c-5.658,1.169-10.544,2.178-14.634,2.178-10.815,0-12.43-8.8-12.43-14.05V64.74c0-5.247,1.615-14.05,12.43-14.05A33.011,33.011,0,0,1,25,51c.463.052.966.121,1.485.2a14.244,14.244,0,0,0,12.764,7.963,14.039,14.039,0,0,0,4.715-.811,12.081,12.081,0,0,0,19.508-1.887c.179,0,.354.007.533.007a111.087,111.087,0,0,0,19.356-1.8c3.344-.573,6.415-1.207,9.384-1.819,5.637-1.162,10.506-2.166,14.58-2.166,10.815,0,12.43,8.8,12.43,14.05V105.7ZM107.32,47.19c-4.431,0-9.462,1.038-15.287,2.238-2.941.606-5.983,1.233-9.272,1.8a108.517,108.517,0,0,1-17.93,1.734c.054-.246.11-.491.149-.742a10.055,10.055,0,0,0,6.583-9.385,9.852,9.852,0,0,0-.208-1.974c2.626-.193,5.307-.492,8.1-.9a7.743,7.743,0,0,0,13.96-2.573c5.353-1.1,10-2.029,13.9-2.029,10.815,0,12.43,8.8,12.43,14.05v3.329C117.016,49.164,112.774,47.19,107.32,47.19Z"/><path d="M74.316,14.25a4.75,4.75,0,1,0-4.75-4.75A4.755,4.755,0,0,0,74.316,14.25Zm0-6a1.25,1.25,0,1,1-1.25,1.25A1.251,1.251,0,0,1,74.316,8.25Z"/><path d="M94.875,22.308a4.75,4.75,0,1,0-4.75-4.75A4.756,4.756,0,0,0,94.875,22.308Zm0-6a1.25,1.25,0,1,1-1.25,1.25A1.251,1.251,0,0,1,94.875,16.308Z"/><path d="M41.576,67.8a7.749,7.749,0,0,0-10.495,9.742,1.75,1.75,0,0,0,3.281-1.219,4.25,4.25,0,1,1,7.968-2.958,1.75,1.75,0,0,0,3.281-1.219A7.693,7.693,0,0,0,41.576,67.8Z"/><path d="M87.333,67.58a7.749,7.749,0,0,0-4.567,9.963,1.75,1.75,0,1,0,3.281-1.219,4.25,4.25,0,1,1,7.968-2.958A1.75,1.75,0,0,0,97.3,72.147,7.759,7.759,0,0,0,87.333,67.58Z"/><path d="M61.491,69.491a7.751,7.751,0,0,0-4.568,9.963A1.751,1.751,0,0,0,58.564,80.6a1.731,1.731,0,0,0,.609-.11,1.751,1.751,0,0,0,1.032-2.25,4.249,4.249,0,1,1,7.967-2.958,1.75,1.75,0,0,0,3.282-1.218A7.759,7.759,0,0,0,61.491,69.491Z"/><path d="M41.576,90.554A7.75,7.75,0,0,0,31.081,100.3a1.75,1.75,0,0,0,3.281-1.219,4.25,4.25,0,1,1,7.968-2.959A1.75,1.75,0,0,0,45.611,94.9,7.693,7.693,0,0,0,41.576,90.554Z"/><path d="M93.26,90.554A7.75,7.75,0,0,0,82.766,100.3a1.75,1.75,0,0,0,3.281-1.219,4.25,4.25,0,1,1,7.968-2.959A1.75,1.75,0,0,0,97.3,94.9,7.7,7.7,0,0,0,93.26,90.554Z"/><path d="M61.49,92.244a7.76,7.76,0,0,0-4.567,9.964,1.751,1.751,0,0,0,3.282-1.219,4.249,4.249,0,1,1,7.967-2.959,1.75,1.75,0,0,0,3.282-1.218A7.76,7.76,0,0,0,61.49,92.244Z"/></svg>