<svg id="Layer_1" data-name="Layer 1" fill="#1c4672" xmlns="http://www.w3.org/2000/svg" viewBox="0 0 128 128"><title>TOILET </title><path d="M97.5,47.99a1.749,1.749,0,0,0,1.75-1.75V17.25h4.558a1.751,1.751,0,0,0,1.75-1.75v-9a1.751,1.751,0,0,0-1.75-1.75H24.192a1.751,1.751,0,0,0-1.75,1.75v9a1.751,1.751,0,0,0,1.75,1.75H28.75V46.24a1.749,1.749,0,0,0,1.75,1.75h11v5.5H24.192a1.75,1.75,0,0,0-1.75,1.75v9a1.751,1.751,0,0,0,1.75,1.75h3.081A36.765,36.765,0,0,0,44.906,96.467l-2.07,24.888a1.75,1.75,0,0,0,1.744,1.895H83.42a1.75,1.75,0,0,0,1.744-1.895l-2.07-24.888a36.765,36.765,0,0,0,17.633-30.478h3.081a1.751,1.751,0,0,0,1.75-1.75v-9a1.75,1.75,0,0,0-1.75-1.75H86.5v-5.5ZM25.942,8.25h76.116v5.5H25.942Zm6.308,9h63.5V44.49H32.25Zm49.269,102.5H46.481l1.786-21.467a36.685,36.685,0,0,0,31.466,0ZM64,98.328A33.288,33.288,0,0,1,30.763,65.989H97.237A33.288,33.288,0,0,1,64,98.328Zm38.058-35.839H25.942v-5.5h76.116ZM83,53.489H45v-5.5H83Z"/><path d="M73.806,90.91a1.742,1.742,0,0,0,.661-.131,28.019,28.019,0,0,0,13.469-11.67,1.751,1.751,0,0,0-3.018-1.775,24.486,24.486,0,0,1-11.775,10.2,1.751,1.751,0,0,0,.663,3.371Z"/><path d="M47.667,26.369a3,3,0,1,0-2.428-4.75H38.417a1.75,1.75,0,0,0,0,3.5h6.822A2.988,2.988,0,0,0,47.667,26.369Z"/></svg>