<svg id="Layer_1" data-name="Layer 1" xmlns="http://www.w3.org/2000/svg" fill="#1c4672" viewBox="0 0 128 128"><title>GARBAGE</title><path d="M76,54.367a1.751,1.751,0,0,0,1.75-1.75V42.962A1.751,1.751,0,0,0,76,41.212H58.2V33.67a1.75,1.75,0,0,0-1.75-1.75H26.05a1.75,1.75,0,0,0-1.75,1.75v7.542H6.5a1.751,1.751,0,0,0-1.75,1.75v9.655a1.751,1.751,0,0,0,1.75,1.75H9.341l3.621,67.227a1.752,1.752,0,0,0,1.748,1.656H67.79a1.752,1.752,0,0,0,1.748-1.656l3.621-67.227ZM27.8,35.42H54.7v5.792H27.8ZM8.25,44.712h66v6.155h-66ZM66.132,119.75H16.368L12.847,54.367H69.653Z"/><path d="M28.012,102.865a1.751,1.751,0,0,0,1.75-1.75V68.93a1.75,1.75,0,0,0-3.5,0v32.185A1.75,1.75,0,0,0,28.012,102.865Z"/><path d="M41.25,102.865a1.751,1.751,0,0,0,1.75-1.75V68.93a1.75,1.75,0,0,0-3.5,0v32.185A1.751,1.751,0,0,0,41.25,102.865Z"/><path d="M54.488,102.865a1.75,1.75,0,0,0,1.75-1.75V68.93a1.75,1.75,0,0,0-3.5,0v32.185A1.751,1.751,0,0,0,54.488,102.865Z"/><path d="M103.589,61.089c4.146-5.938,8.471-12.995,7.72-15.653a3.821,3.821,0,0,0-2.759-2.754,6.884,6.884,0,0,0-5.957,1.651,8.936,8.936,0,0,1-4.812,2.053,8.933,8.933,0,0,1-4.811-2.053,6.884,6.884,0,0,0-5.957-1.651,3.821,3.821,0,0,0-2.759,2.754c-.751,2.658,3.574,9.714,7.718,15.651-6.8,5.773-19.662,19.944-19.662,44.5,0,.043,0,.087,0,.131l.006.124c0,.087.008.173.012.214A18.148,18.148,0,0,0,90.52,123.25h14.53a18.132,18.132,0,0,0,18.175-17.143c.006-.089.01-.175.014-.262l.006-.124c0-.044,0-.088,0-.131C123.25,81.033,110.391,66.863,103.589,61.089ZM87.926,46.061a3.531,3.531,0,0,1,2.615.792,12.32,12.32,0,0,0,7.24,3.033,12.323,12.323,0,0,0,7.241-3.033,3.538,3.538,0,0,1,2.615-.792.335.335,0,0,1,.282.255c-.039,1.588-3.846,7.982-7.606,13.348H95.25c-3.76-5.365-7.568-11.759-7.606-13.348A.335.335,0,0,1,87.926,46.061Zm31.806,59.821A14.645,14.645,0,0,1,105.05,119.75H90.52a14.662,14.662,0,0,1-14.695-13.917l-.015-.282c.014-22.717,11.648-35.93,18.087-41.5-2.225,6.146-4.824,15.063-4.394,22.3A1.75,1.75,0,0,0,91.249,88l.105,0A1.751,1.751,0,0,0,93,86.146c-.454-7.643,3-17.845,4.937-22.9a68.747,68.747,0,0,1,4.132,18.28,1.75,1.75,0,0,0,1.742,1.609q.07,0,.144-.006a1.749,1.749,0,0,0,1.6-1.886,75.054,75.054,0,0,0-3.437-16.792c6.516,5.79,17.619,18.914,17.633,41.105Z"/><path d="M83.6,32.08a1.749,1.749,0,0,0,1.478,1.984,1.7,1.7,0,0,0,.255.019,1.749,1.749,0,0,0,1.729-1.495c.059-.4,1.394-9.83-2.488-15.1-3.262-4.428-3.3-6.615-.171-9.752a1.75,1.75,0,1,0-2.477-2.472c-5.412,5.424-3.281,10.078-.171,14.3C84.782,23.671,83.613,32,83.6,32.08Z"/><path d="M94.934,32.08a1.749,1.749,0,0,0,1.478,1.984,1.7,1.7,0,0,0,.255.019A1.749,1.749,0,0,0,98.4,32.588c.059-.4,1.394-9.83-2.488-15.1-3.262-4.428-3.3-6.615-.171-9.752A1.75,1.75,0,1,0,93.26,5.264c-5.412,5.424-3.281,10.078-.171,14.3C96.115,23.671,94.946,32,94.934,32.08Z"/><path d="M106.267,32.08a1.749,1.749,0,0,0,1.478,1.984,1.7,1.7,0,0,0,.255.019,1.749,1.749,0,0,0,1.729-1.495c.059-.4,1.394-9.83-2.488-15.1-3.262-4.428-3.3-6.615-.171-9.752a1.75,1.75,0,1,0-2.477-2.472c-5.412,5.424-3.281,10.078-.171,14.3C107.448,23.671,106.279,32,106.267,32.08Z"/></svg>