<?xml version="1.0" encoding="utf-8"?>
<!-- Generator: Adobe Illustrator 25.2.3, SVG Export Plug-In . SVG Version: 6.00 Build 0)  -->
<svg version="1.1" id="Layer_1" xmlns="http://www.w3.org/2000/svg" xmlns:xlink="http://www.w3.org/1999/xlink" x="0px" y="0px"
	 viewBox="0 0 100 100" style="enable-background:new 0 0 100 100;" xml:space="preserve">
<style type="text/css">
	.st0{fill:#E1F5FE;}
	.st1{fill:#FFFFFF;}
	.st2{fill:#0288D1;}
	.st3{fill:#81D4FA;}
</style>
<g>
	<path class="st0" d="M89.7,29.3H51.4v41.9h17.4c0.7-0.8,1.8-1.3,2.9-1.3c1.2,0,2.2,0.5,2.9,1.3h15.1V29.3z"/>
</g>
<g>
	<polygon class="st0" points="51.4,29.3 89.7,29.3 89.7,71.3 82.8,71.3 71.7,66.7 60.6,71.3 51.4,71.3 	"/>
	<polygon class="st1" points="44.8,50.3 27.6,50.8 31.7,36.9 44.8,38.5 	"/>
	<path class="st0" d="M44.8,72l-5.6,0.6c-1.6-4.6-4.9-9.6-10-9.6s-9.4,5.8-11,10.4l-7.9-1.7V58.6l11.6-3.5l23.6,0.9L44.8,72z"/>
	<path class="st2" d="M45,39l-0.1-6H29.2l-7.8,17.3L5.7,54.2v23.5h12.5c1.6,4.6,5.9,7.8,11.1,7.8s9.4-3.3,11.1-7.8h4.6v-6.5h-4.6
		c-0.2-4.1-4.8-9.2-11.1-9.2c-5.1,0-9.4,4.4-11.1,8.9h-5.9V59.3l10.1-2.8l22.6,0.2v-6.4H28.4L34,39H45z M29.2,69.9
		c2.2,0,3.9,1.8,3.9,3.9c0,2.2-1.8,3.9-3.9,3.9s-3.9-1.8-3.9-3.9C25.3,71.7,27,69.9,29.2,69.9z"/>
	<path class="st3" d="M12.3,42.4c0,1.8,1.5,3.3,3.3,3.3s3.3-1.5,3.3-3.3c0-1.8-1.5-3.3-3.3-3.3S12.3,40.6,12.3,42.4z"/>
	<path class="st3" d="M14.4,27.7c0-1.8-1.5-3.3-3.3-3.3H7.7V21h3.3c1.8,0,3.3-1.5,3.3-3.3v-3.3h3.3v3.3c0,1.8,1.5,3.3,3.3,3.3h3.3
		v3.3c0,0-3.3,0-3.3,0c-1.8,0-3.3,1.5-3.3,3.3V31h-3.3V27.7z"/>
	<path class="st3" d="M28.9,24.7c0,1.8,1.5,3.3,3.3,3.3c1.8,0,3.3-1.5,3.3-3.3s-1.5-3.3-3.3-3.3C30.4,21.4,28.9,22.9,28.9,24.7z"/>
	<path class="st2" d="M44.9,22.8v54.9h3.2h3.2h9.2c1.6,4.6,5.9,7.8,11.1,7.8c5.1,0,9.4-3.3,11.1-7.8h0h12.4v0h1V22.8 M71.7,77.8
		c-2.2,0-3.9-1.8-3.9-3.9c0-2.2,1.8-3.9,3.9-3.9c2.2,0,3.9,1.8,3.9,3.9C75.6,76,73.8,77.8,71.7,77.8z M71.7,62.1
		c-5.1,0-10.4,3.9-11.1,9.2h-9.2V29.3h38.3v41.9h-6.9C82,64.7,76.8,62.1,71.7,62.1z"/>
	<path class="st3" d="M89.7,52.2V49H73.7v-1.6c0-2.1-1.3-3.8-3.2-4.5v-3.5c0-1.8,1.4-3.2,3.2-3.2h15.9V33H73.7
		c-3.5,0-6.4,2.9-6.4,6.4v3.5c-1.9,0.7-3.2,2.4-3.2,4.5v11.2h25.5v-3.2H67.4v-8c0-0.9,0.7-1.6,1.6-1.6c0.9,0,1.6,0.7,1.6,1.6v4.8
		H89.7z"/>
	<path class="st0" d="M89.7,49H73.7v-1.6c0-2.1-1.3-3.8-3.2-4.5v-3.5c0-1.8,1.4-3.2,3.2-3.2h15.9V49z"/>
	<path class="st0" d="M89.7,55.4H67.4v-8c0-0.9,0.7-1.6,1.6-1.6c0.9,0,1.6,0.7,1.6,1.6v4.8h19.1V55.4z"/>
</g>
</svg>
