<svg id="Layer_1" data-name="Layer 1" xmlns="http://www.w3.org/2000/svg" fill="white" viewBox="0 0 128 128"><title>VACUUM CLEANER</title><path d="M34.5,60.873a12.764,12.764,0,0,0-12.75,12.75V77.25a1.75,1.75,0,0,0,3.5,0V73.623a9.26,9.26,0,0,1,9.25-9.25,1.75,1.75,0,0,0,0-3.5Z"/><path d="M112.5,110.75h-6.846L91.787,27.069a21.066,21.066,0,0,0-10.88-15.157L71.928,7.173A20.913,20.913,0,0,0,41.24,25.67V41.75H39.99a1.75,1.75,0,0,0-1.75,1.75v8.37H34.5A21.775,21.775,0,0,0,12.75,73.62v5.334a9.761,9.761,0,0,0-8,9.585V99.594a9.761,9.761,0,0,0,8,9.585v4.271a1.749,1.749,0,0,0,1.75,1.75H36.327A13.491,13.491,0,1,0,56.74,98.953V53.62a1.75,1.75,0,0,0-1.75-1.75H53.74V43.5a1.75,1.75,0,0,0-1.75-1.75H50.74V25.67a11.426,11.426,0,0,1,16.751-10.1l8.981,4.75A11.457,11.457,0,0,1,82.4,28.6L96.026,110.75H89.417a10.762,10.762,0,0,0-10.75,10.75,1.75,1.75,0,0,0,1.75,1.75H121.5a1.75,1.75,0,0,0,1.75-1.75A10.762,10.762,0,0,0,112.5,110.75ZM8.25,99.594V88.539a6.264,6.264,0,0,1,4.5-6V105.6A6.263,6.263,0,0,1,8.25,99.594ZM58.669,109.75a10,10,0,1,1-10-10A10.011,10.011,0,0,1,58.669,109.75Zm-10-13.5A13.4,13.4,0,0,0,35.325,111.7H16.25V73.62A18.271,18.271,0,0,1,34.5,55.37H53.24V97.062A13.409,13.409,0,0,0,48.669,96.249ZM41.74,51.87V45.25h8.5v6.62ZM85.858,28.034a14.968,14.968,0,0,0-7.75-10.811l-8.981-4.75A14.92,14.92,0,0,0,47.24,25.67V41.75h-2.5V25.67a17.416,17.416,0,0,1,25.553-15.4l8.978,4.739a17.547,17.547,0,0,1,9.062,12.629l13.773,83.114H99.574ZM82.381,119.75a7.261,7.261,0,0,1,7.036-5.5H112.5a7.261,7.261,0,0,1,7.036,5.5Z"/></svg>