<svg id="Layer_1" data-name="Layer 1" fill="#1c4672" xmlns="http://www.w3.org/2000/svg" viewBox="0 0 128 128"><title>PRESSURE WASHER</title><path d="M29.537,84.308v19.5a1.75,1.75,0,0,0,1.75,1.75h34a1.75,1.75,0,0,0,1.75-1.75v-19.5a1.749,1.749,0,0,0-1.75-1.75h-34A1.749,1.749,0,0,0,29.537,84.308Zm3.5,1.75h30.5v16h-30.5Z"/><path d="M36.287,38.417a1.75,1.75,0,0,0,0,3.5h24a1.75,1.75,0,1,0,0-3.5Z"/><path d="M36.287,49.75h24a1.75,1.75,0,1,0,0-3.5h-24a1.75,1.75,0,0,0,0,3.5Z"/><path d="M36.287,57.583h24a1.75,1.75,0,1,0,0-3.5h-24a1.75,1.75,0,0,0,0,3.5Z"/><path d="M122.493,24.066a1.753,1.753,0,0,0-1.617-.194l-8.547,3.26h-3.835c-2.316-5.787-8.213-14.674-22.916-17.471a53.294,53.294,0,0,0-25.229,1.185V6.5A1.751,1.751,0,0,0,58.6,4.75H37.974a1.751,1.751,0,0,0-1.75,1.75V22.44h-2.8A13.733,13.733,0,0,0,19.692,35.491L16.944,89.124A7.739,7.739,0,0,0,4.75,95.463V115.5a7.744,7.744,0,0,0,13.188,5.514,7.746,7.746,0,0,0,5.412,2.236H73.22a7.748,7.748,0,0,0,5.414-2.238A7.744,7.744,0,0,0,91.823,115.5V95.463a7.739,7.739,0,0,0-12.195-6.338L76.888,35.49A13.753,13.753,0,0,0,63.15,22.44h-2.8V14.551A49.948,49.948,0,0,1,84.923,13.1c12.018,2.287,17.379,9.028,19.748,14.033h-1.019a1.751,1.751,0,0,0-1.75,1.75V49a1.746,1.746,0,0,0,1.5,1.725v54.8a1.745,1.745,0,0,0-1.5,1.652l-.6,14.247a1.75,1.75,0,0,0,1.748,1.823H113.25A1.75,1.75,0,0,0,115,121.427l-.6-14.247a1.745,1.745,0,0,0-1.5-1.652v-54.8A1.744,1.744,0,0,0,114.4,49V35.653l7.343-1.038a1.75,1.75,0,0,0,1.5-1.733V25.507A1.751,1.751,0,0,0,122.493,24.066ZM39.724,8.25H56.849v3.855c-5.866,2.445-10.03,6.059-11.926,10.335h-5.2ZM12.5,119.75a4.255,4.255,0,0,1-4.25-4.25V95.463a4.25,4.25,0,0,1,8.5,0V115.5A4.255,4.255,0,0,1,12.5,119.75ZM84.073,91.213a4.255,4.255,0,0,1,4.25,4.25V115.5a4.25,4.25,0,0,1-8.5,0V95.463A4.255,4.255,0,0,1,84.073,91.213ZM73.392,35.669,76.4,94.45a7.866,7.866,0,0,0-.074,1.013V115.5a7.727,7.727,0,0,0,.389,2.411,4.249,4.249,0,0,1-3.492,1.839H23.35a4.251,4.251,0,0,1-3.489-1.838,7.733,7.733,0,0,0,.389-2.412V95.463a7.765,7.765,0,0,0-.075-1.017l3.012-58.779A10.237,10.237,0,0,1,33.42,25.94h4.53l.024,0H58.6l.024,0H63.15A10.255,10.255,0,0,1,73.392,35.669ZM48.874,22.44a18.571,18.571,0,0,1,7.975-6.505V22.44ZM106.9,105.5V50.75h2.5V105.5Zm4-71.371V47.25h-5.5V30.632h5.5Zm-6.021,85.618.45-10.747h5.644l.45,10.747ZM119.75,31.362l-5.348.756v-2.03l5.348-2.04Z"/></svg>