<?xml version="1.0" encoding="utf-8"?>
<!-- Generator: Adobe Illustrator 16.0.0, SVG Export Plug-In . SVG Version: 6.00 Build 0)  -->
<!DOCTYPE svg PUBLIC "-//W3C//DTD SVG 1.0//EN" "http://www.w3.org/TR/2001/REC-SVG-20010904/DTD/svg10.dtd">
<svg version="1.0" id="Layer_1" xmlns="http://www.w3.org/2000/svg" xmlns:xlink="http://www.w3.org/1999/xlink" x="0px" y="0px"
	 width="100px" height="100px" viewBox="0 0 100 100" enable-background="new 0 0 100 100" xml:space="preserve">
<rect x="30.001" y="10" fill="#0288D1" width="59.999" height="80"/>
<rect x="36.666" y="16.667" fill="#E1F5FE" width="46.666" height="66.666"/>
<path fill="#81D4FA" d="M80,30c-3.686,0-6.668,2.988-6.668,6.667H70C70,32.988,67.012,30,63.332,30v-3.34
	C67.02,26.66,70,23.672,70,20h3.332c0,3.672,2.988,6.66,6.668,6.66V30z"/>
<path fill="#81D4FA" d="M56.666,71.667c0,2.76-2.234,5-5,5c-2.754,0-5-2.24-5-5c0-2.761,2.246-5,5-5
	C54.432,66.667,56.666,68.906,56.666,71.667z"/>
<path fill="#81D4FA" d="M50.001,26.667c0,1.836-1.499,3.333-3.335,3.333s-3.333-1.497-3.333-3.333s1.497-3.333,3.333-3.333
	S50.001,24.831,50.001,26.667z"/>
<path fill="#81D4FA" d="M76.666,46.667c0,1.836-1.498,3.333-3.334,3.333S70,48.503,70,46.667s1.496-3.334,3.332-3.334
	S76.666,44.831,76.666,46.667z"/>
<polygon fill="#0288D1" points="10.001,76.667 10.001,69.45 56.721,50.1 51.399,37.251 56.502,32.15 71.809,69.102 64.596,69.105 
	59.273,56.257 "/>
</svg>
