<svg id="Layer_1" data-name="Layer 1" fill="#1c4672" xmlns="http://www.w3.org/2000/svg" viewBox="0 0 128 128"><title>WIPER</title><path d="M122.69,109.979l-40.535-37.6c-.093-.093-.177-.192-.263-.29a1.774,1.774,0,0,0-.245-.314c-.01-.01-.022-.016-.033-.026a5.977,5.977,0,0,1,.549-7.845L96.182,49.884a1.751,1.751,0,0,0,0-2.475l-6.757-6.757a1.8,1.8,0,0,0-2.475,0l-46.3,46.3a1.749,1.749,0,0,0,0,2.475l6.757,6.757a1.8,1.8,0,0,0,2.474,0L63.911,82.154a5.984,5.984,0,0,1,8.421-.047l37.647,40.583a1.747,1.747,0,0,0,1.25.56h.033a1.746,1.746,0,0,0,1.237-.513L122.737,112.5a1.748,1.748,0,0,0-.047-2.52ZM61.437,79.68,48.647,92.47l-4.282-4.282L88.188,44.364l4.282,4.282L79.688,61.429a9.461,9.461,0,0,0-1.55,11.38l-5.329,5.329A9.477,9.477,0,0,0,61.437,79.68Zm49.872,39.3-35.8-38.591,4.877-4.877,38.592,35.8Z"/><path d="M103.922,106.4l4.243,4.244a1.75,1.75,0,0,0,2.475-2.475l-4.243-4.243a1.75,1.75,0,0,0-2.475,2.474Z"/><path d="M74.647,38.649a1.75,1.75,0,1,0,2.475-2.474L46.21,5.263a1.75,1.75,0,1,0-2.475,2.474Z"/><path d="M52.446,26.522a1.749,1.749,0,0,0,0,2.475L60,36.55a1.75,1.75,0,0,0,2.475-2.475L54.92,26.522A1.75,1.75,0,0,0,52.446,26.522Z"/><path d="M65.176,39.253a1.751,1.751,0,0,0,0,2.475l3.2,3.2a1.75,1.75,0,0,0,2.474-2.475l-3.2-3.2A1.749,1.749,0,0,0,65.176,39.253Z"/><path d="M34.138,36.612a1.749,1.749,0,0,0,2.474-2.474l-5.261-5.262a1.75,1.75,0,0,0-2.475,2.475Z"/><path d="M55.411,57.886a1.75,1.75,0,0,0,2.474-2.475L41.959,39.484a1.75,1.75,0,0,0-2.475,2.475Z"/><path d="M19.962,48.921l8.656,8.656A1.75,1.75,0,1,0,31.093,55.1l-8.656-8.657a1.75,1.75,0,1,0-2.475,2.475Z"/><path d="M33.286,59.771a1.748,1.748,0,0,0,0,2.474l8.882,8.883a1.75,1.75,0,1,0,2.475-2.475L35.76,59.771A1.748,1.748,0,0,0,33.286,59.771Z"/><path d="M61.823,51.474A1.75,1.75,0,1,0,64.3,49L43.535,28.236a1.75,1.75,0,0,0-2.475,2.475Z"/><path d="M49,64.3a1.75,1.75,0,1,0,2.474-2.475l-9.845-9.844a1.749,1.749,0,0,0-2.474,2.474Z"/><path d="M7.737,43.735A1.75,1.75,0,1,0,5.263,46.21L9.64,50.587a1.75,1.75,0,1,0,2.474-2.475Z"/><path d="M17.376,53.374A1.75,1.75,0,0,0,14.9,55.849L36.174,77.121a1.75,1.75,0,1,0,2.475-2.475Z"/><path d="M23.79,90.969H21.714V88.893a1.75,1.75,0,0,0-3.5,0v2.076H16.139a1.75,1.75,0,1,0,0,3.5h2.075v2.075a1.75,1.75,0,0,0,3.5,0V94.469H23.79a1.75,1.75,0,0,0,0-3.5Z"/><path d="M84,18.616h2.075v2.075a1.75,1.75,0,1,0,3.5,0V18.616h2.076a1.75,1.75,0,0,0,0-3.5H89.573V13.04a1.75,1.75,0,0,0-3.5,0v2.076H84a1.75,1.75,0,0,0,0,3.5Z"/><path d="M17.032,19.087V17.012h2.075a1.75,1.75,0,0,0,0-3.5H17.032V11.437a1.75,1.75,0,0,0-3.5,0v2.075H11.456a1.75,1.75,0,0,0,0,3.5h2.076v2.075a1.75,1.75,0,0,0,3.5,0Z"/></svg>