<svg xmlns="http://www.w3.org/2000/svg" viewBox="0 0 1193.08 244.58"><defs><style>.cls-1{fill:#1d1d1b;}.cls-2{fill:#009fe3;}</style></defs><g id="Layer_2" data-name="Layer 2"><g id="Layer_1-2" data-name="Layer 1"><path class="cls-1" d="M615.66,165.37q-2.73,15.19-4.67,30.92-14.78,2.73-27.09,3.87t-21.14,1.22a125.78,125.78,0,0,1-37.22-5.13,92.1,92.1,0,0,1-32.07-16.92A67.59,67.59,0,0,1,472.66,151,102.25,102.25,0,0,1,466,114.48a102.2,102.2,0,0,1,7.32-39.9A83.14,83.14,0,0,1,495,43.51a93,93,0,0,1,33.77-19A135.34,135.34,0,0,1,569.62,18a244,244,0,0,1,46,4.41q.48,11.55.92,16.34l1,13.88a225.84,225.84,0,0,0-24.44-5.11,127.39,127.39,0,0,0-18.56-1.27,84.37,84.37,0,0,0-26.63,4.45,60,60,0,0,0-22.47,13.62,61.87,61.87,0,0,0-14.86,22.38,72.12,72.12,0,0,0-5,27.23q.15,16.88,6.75,30.18t21,21.49q14.4,8.19,35.56,8Q588.47,173.39,615.66,165.37Z"/><path class="cls-1" d="M625.29,197.73q1.76-21.94,4-78.88t2.58-98.32q13.51.15,19.23.1,7.65-.07,18.7-.42L667.15,67.6l-3.62,105.66-.31,24.14q-10.65-.17-18.05-.1Q642.69,197.32,625.29,197.73Z"/><path class="cls-1" d="M797.25,166.79q-1.62,7.68-4.56,27.55-14,3.1-23.59,4.23a179.88,179.88,0,0,1-19.32,1.2,125.18,125.18,0,0,1-30.46-3.11,55,55,0,0,1-23.66-12.18,53.83,53.83,0,0,1-15.11-22,79,79,0,0,1-5-27.44,87.76,87.76,0,0,1,5.32-31q5.45-15,15.42-24.64A57.59,57.59,0,0,1,719,65.78a90.75,90.75,0,0,1,26.83-4.18,93.59,93.59,0,0,1,25.2,3.09,47.59,47.59,0,0,1,20.14,10.64,50.52,50.52,0,0,1,12.61,18,61.09,61.09,0,0,1,4.55,23.47,63.27,63.27,0,0,1-1.19,12.57l-95.11.95c-.15,3.2-.21,5.76-.2,7.66A41.62,41.62,0,0,0,715,153.87a33.11,33.11,0,0,0,8.81,12.26,36,36,0,0,0,13.68,7.34,53.46,53.46,0,0,0,15.6,2.27,106.08,106.08,0,0,0,19.38-2.12A201.76,201.76,0,0,0,797.25,166.79ZM713,115.09l60.73-.39a78.56,78.56,0,0,0-.46-9.18,33.77,33.77,0,0,0-1.81-6.77,23,23,0,0,0-3.76-6.68,21.28,21.28,0,0,0-5.49-4.8A25,25,0,0,0,755,84.36a35.26,35.26,0,0,0-8.77-1,33.71,33.71,0,0,0-10.56,1.77,32,32,0,0,0-9.36,5,29.54,29.54,0,0,0-6.88,7.3,35.45,35.45,0,0,0-3.9,7.72A81.42,81.42,0,0,0,713,115.09Z"/><path class="cls-1" d="M821.81,93c1.16-6.24,1.87-10.61,2.16-13.12s.79-6.33,1.52-11.44a300.3,300.3,0,0,1,31.09-6.1,210.4,210.4,0,0,1,26.07-1.91,97.5,97.5,0,0,1,26.24,3.08q12,3.21,18.78,10.41t6.93,20.84q.06,7.39-1.74,37.71t-1.92,62.63q-9.87-.16-18.18-.1-7.92.06-18.57.42,1.57-15.72,2.44-36.36l1.44-32.32a81.84,81.84,0,0,1-7.5,4.6,45.72,45.72,0,0,1-5.82,2.45q-3.24,1.14-11.4,3.48t-13.08,4.06a58.94,58.94,0,0,0-8.87,3.91,29.68,29.68,0,0,0-6.65,4.86,17.38,17.38,0,0,0-3.91,5.61,16,16,0,0,0-1.18,6.31,14.57,14.57,0,0,0,3.26,9.38,16.58,16.58,0,0,0,8,5.44,36.6,36.6,0,0,0,11.3,1.46,62,62,0,0,0,8.75-.72,74.44,74.44,0,0,0,12.37-3.35,225.08,225.08,0,0,0-6.17,22.11Q868,198,862.55,198.42c-3.63.29-7,.44-10.11.47q-16.37.13-26.9-4.18a29.84,29.84,0,0,1-15.63-13.88,41.41,41.41,0,0,1-5.16-19.29,33.07,33.07,0,0,1,7.48-21.09,49.59,49.59,0,0,1,9.66-8.84q5.94-4.28,17.2-8.33a261.66,261.66,0,0,1,29.79-8.23q4.93-1.08,10.24-2.62a63.57,63.57,0,0,0,8.48-3,18.89,18.89,0,0,0,5.48-3.75,15.41,15.41,0,0,0,3.4-4.76,12.23,12.23,0,0,0,1.07-5.08,12,12,0,0,0-3.39-8.53,17.46,17.46,0,0,0-8.61-4.79,46.56,46.56,0,0,0-11.64-1.27Q850.29,81.47,821.81,93Z"/><path class="cls-1" d="M946.5,195q2.71-29.47,4.4-66.22t1.69-65.81q12,.16,19.1.09,8.44-.06,17.93-.41l-1.26,22.07a97.52,97.52,0,0,1,7-9.14,44,44,0,0,1,7.73-6.69,45.24,45.24,0,0,1,10.08-5.27,72.17,72.17,0,0,1,12-3.22,80.52,80.52,0,0,1,13.94-1.29,83.35,83.35,0,0,1,22.16,2.73q10.59,2.84,17.14,9.13a31,31,0,0,1,8.69,13.81,60.18,60.18,0,0,1,2.21,16q0,3.49-.29,11.16l-2.2,56.73q-.4,11.81-.42,25.18c-6.85-.12-12.69-.15-17.55-.11q-9.87.09-19.88.43.95-11.29,2.27-39.41t1.25-37.19q-.09-10.24-3.39-16.45A21.16,21.16,0,0,0,1039,91.66a33.58,33.58,0,0,0-14.74-3.12,35.38,35.38,0,0,0-14.5,3.11,32.8,32.8,0,0,0-11.59,8.79,40.83,40.83,0,0,0-7.92,14.47q-2.89,9.12-4.15,30-1.14,18.57-1.66,49.71-10-.16-18.07-.1T946.5,195Z"/><path class="cls-1" d="M1098.06,191.2l-3.1-28.52a143.48,143.48,0,0,0,21.6,7,73.57,73.57,0,0,0,16.24,1.87,38.23,38.23,0,0,0,12.44-1.86,14.86,14.86,0,0,0,7.48-5.26,12.13,12.13,0,0,0,2.41-7.22,14.36,14.36,0,0,0-.35-3.11,12,12,0,0,0-1.2-3,18.81,18.81,0,0,0-2-2.91,28.57,28.57,0,0,0-3.08-3.09c-1.3-1.15-3.18-2.63-5.61-4.42l-7.06-5.52q-10.18-7.83-15.55-12.33a61.33,61.33,0,0,1-9-9.2,36.64,36.64,0,0,1-5.6-9.94,31.44,31.44,0,0,1-2-10.69A31.78,31.78,0,0,1,1109.32,75q5.7-8.61,16.7-12.67t25.92-4.18a224,224,0,0,1,39.22,3.69l1.92,27.11a76.92,76.92,0,0,0-29-5.85,51.48,51.48,0,0,0-13.15,1.6q-5.64,1.55-8.08,4.61a10.57,10.57,0,0,0-2.4,6.84,12.63,12.63,0,0,0,.81,4.34,15.24,15.24,0,0,0,2.77,4.45,32.87,32.87,0,0,0,4.51,4.37q2.55,2.06,10.65,8.09t14.17,10.91a62.86,62.86,0,0,1,10,9.84,38.8,38.8,0,0,1,6.06,10.65,33.69,33.69,0,0,1,2.18,11.53,30.33,30.33,0,0,1-5.82,18.09q-5.9,8.35-17.92,13.13a74.24,74.24,0,0,1-27,4.9,177.36,177.36,0,0,1-19-1.06A186.22,186.22,0,0,1,1098.06,191.2Z"/><path class="cls-2" d="M423.41,102.3v-.75a29.19,29.19,0,0,0,4.67-1q12.17-3.42,25.79-13.78,12.28-9.45,17.91-20.2a50.81,50.81,0,0,0,5.52-24.45,32.66,32.66,0,0,0-5.2-17.74,42.09,42.09,0,0,0-14.81-13.51,77.24,77.24,0,0,0-23.35-8.31A148.85,148.85,0,0,0,403.39,0q-27.87.24-50.34,6.31T319.66,22.57q-4.79,4.72-9.52,14.1T305.44,51c0,3.12,2.1,4.66,6.21,4.62q4.38,0,14.73-4.34a17.9,17.9,0,0,1,3.46-1.69,214.58,214.58,0,0,0-12.11,28.58l-17.17,54.4c-1,3.24-1.93,6.45-2.85,9.64a206.18,206.18,0,0,1-7.68-29,367.7,367.7,0,0,1-4.39-54.81q-.09-11.44.88-38.58c.17-3.12.25-6,.22-8.75q0-5.26-2.39-6.76T273.11,2.93q-17.17.15-28,4.91a35.41,35.41,0,0,0-6.07,3.06,23.48,23.48,0,0,0-4.12,3.42,64.82,64.82,0,0,0-4.32,5.23Q214.86,43.75,180,124.23L177,131a30.42,30.42,0,0,1-4.94-9.8q-1.71-5.61-5.06-25a34.7,34.7,0,0,0-1-5.55,9.33,9.33,0,0,0-.17-2c-.1-.5-.21-1.07-.31-1.72s-.27-1.58-.48-2.78q-5-31.81-9.79-48.58T145,13.23q-8.84-9.12-29.49-8.94a59.32,59.32,0,0,0-19,3.1q-8.73,3-8.69,6.33,0,2.1,3.53,4.94c3.06,2.58,4.61,4.93,4.62,7q0,2.86-8.72,20.79T53.65,113.16l-7.12,13.62q-16.17,31.33-24.21,43.45l-8.63,13.64Q6.25,195.09,4,197.81c-2.69,2.84-4,5.11-4,6.82a5.43,5.43,0,0,0,2.75,4.65A11.1,11.1,0,0,0,9.08,211a48.67,48.67,0,0,0,20-4.92,69.78,69.78,0,0,0,19.3-13.37,89.64,89.64,0,0,0,7.89-9.88q4.91-7.43,9-15T76,146.2q6.68-14.07,12.75-27.83c.5-1.11,2.27-5.14,5.34-12.1s5.33-12.1,6.81-15.43l6.67-15h.6q2.35,27.27,5.32,46.16a291.67,291.67,0,0,0,6.79,32.66,184.27,184.27,0,0,0,9.82,27A72.73,72.73,0,0,0,143.59,202q7.68,7.84,14,7.8a15.79,15.79,0,0,0,5.5-1.33,18.19,18.19,0,0,0,5.77-3.74,12.59,12.59,0,0,0,1.64-1.68c.6-.7,1-1.16,1.2-1.36q5.21-7.43,22.1-43.14,5.33-11.19,9.26-19.21T213.22,119q6.22-12.26,15.57-30.57h.6q.18,3,1.44,26.51a296.56,296.56,0,0,0,3.32,35.76q2.37,14.07,7.06,23.6a63,63,0,0,0,12.58,17.29q15.5,16,34.34,15.83a29.15,29.15,0,0,0,8.76-1.47,21.09,21.09,0,0,0,8.69,1.62,23,23,0,0,0,8-1.57l.61.59q-7,6.09-9.64,10.18a15.88,15.88,0,0,0-2.56,8.76q0,5.13,6.56,9.52t17.47,7a94.07,94.07,0,0,0,22.85,2.52q14.16-.12,34-7.68a227.07,227.07,0,0,0,39.38-19.77A191.12,191.12,0,0,0,456,190.77a70.83,70.83,0,0,0,11.26-14.11,68.46,68.46,0,0,0,7.09-15.73,51.48,51.48,0,0,0,2.36-15.39Q476.35,108.63,423.41,102.3Zm-11.13,73A70.1,70.1,0,0,1,398,196.24a38,38,0,0,1-12.8,8.62,43.62,43.62,0,0,1-15.73,2.78A74.09,74.09,0,0,1,354,206.11q-7.77-1.59-26.05-7a70.32,70.32,0,0,0,10.73-13.5,152.78,152.78,0,0,0,12.37-25.42q5.82-15,12.74-39c.39-1.4.78-2.91,1.17-4.52s.78-3.07,1.18-4.38a22.57,22.57,0,0,0,7.12,5.65q3.33,1.48,11.77,3.06a63.11,63.11,0,0,1,14.41,3.64,30.68,30.68,0,0,1,9.46,6.4,28.52,28.52,0,0,1,8.76,20.87A55.48,55.48,0,0,1,412.28,175.32Zm-.61-101.63q-7.19,10.55-20.31,19.84Q380.92,101,373,101.07a21,21,0,0,1-3.61-.27L388,34.64c1.9-1.22,4.86-1.84,8.88-1.88q21.71-.18,21.89,20.46Q418.86,63.17,411.67,73.69Z"/></g></g></svg>